<?xml version="1.0" standalone="no"?>
<!DOCTYPE svg PUBLIC "-//W3C//DTD SVG 1.1//EN" "http://www.w3.org/Graphics/SVG/1.1/DTD/svg11.dtd" >
<svg xmlns="http://www.w3.org/2000/svg">
<metadata>
This is a custom SVG webfont generated by Font Squirrel.
Copyright   : Font software Copyright 1993 1994 2001 Adobe Systems Incorporated Typeface designs Copyright 2005 International Typeface Corporation All rights reserved
Designer    : Herb Lubalin and Tom Carnase
Foundry URL : httpwwwitcfontscom
</metadata>
<defs>
<font id="ITCAvantGardeGothicProDemi" horiz-adv-x="1228" >
<font-face units-per-em="2048" ascent="1516" descent="-532" />
<missing-glyph horiz-adv-x="573" />
<glyph unicode=" "  horiz-adv-x="573" />
<glyph unicode="&#x09;" horiz-adv-x="573" />
<glyph unicode="&#xa0;" horiz-adv-x="573" />
<glyph unicode="!" horiz-adv-x="573" d="M150 0v260h272v-260h-272zM150 385v1131h272v-1131h-272z" />
<glyph unicode="&#x22;" horiz-adv-x="737" d="M39 1516h272l-55 -607h-164zM426 1516h272l-53 -607h-168z" />
<glyph unicode="#" horiz-adv-x="1146" d="M59 403l9 195h194l33 238h-174l8 194h193l55 404h205l-56 -404h187l55 404h205l-55 -404h157l-8 -194h-176l-33 -238h156l-8 -195h-177l-55 -403h-205l56 403h-187l-55 -403h-205l55 403h-174zM467 598h186l33 238h-186z" />
<glyph unicode="$" horiz-adv-x="1146" d="M119 510h270q4 -78 54.5 -127t127.5 -49q76 0 129.5 50t53.5 126q0 47 -15.5 81t-49.5 54.5t-62.5 31.5t-77.5 25q-14 4 -23 7q-350 102 -350 405q0 137 75 239.5t206 139.5v262h258v-266q115 -37 184.5 -131t79.5 -219h-256q-35 125 -139 125q-55 0 -95 -42t-40 -100 q0 -68 36.5 -99.5t112.5 -57.5l107 -35q322 -100 321 -418q0 -152 -83 -265.5t-228 -152.5v-270h-258v268q-160 43 -249 150.5t-89 267.5z" />
<glyph unicode="%" horiz-adv-x="1761" d="M74 1176q0 154 107.5 262t261 108t261 -108.5t107.5 -261.5q0 -152 -108.5 -260.5t-260 -108.5t-260 108.5t-108.5 260.5zM301 1176q0 -57 42 -99.5t99.5 -42.5t99.5 42t42 101.5t-42 100.5t-100 41q-59 0 -100 -42t-41 -101zM459 0l626 1516h209l-628 -1516h-207z M944 340q0 154 108.5 262.5t262 108.5t261 -108.5t107.5 -262.5q0 -152 -108.5 -261.5t-259.5 -109.5q-154 0 -262.5 108.5t-108.5 262.5zM1171 340q0 -57 43 -100t100.5 -43t99.5 42t42 101t-41 101t-100.5 42t-101.5 -42t-42 -101z" />
<glyph unicode="&#x26;" horiz-adv-x="1392" d="M70 451q0 145 73.5 246.5t210.5 181.5q-66 76 -96.5 138t-30.5 146q0 162 111 272.5t274 110.5q162 0 277 -107.5t115 -267.5q0 -240 -240 -372l139 -156l148 252h303l-260 -459l268 -291l-199 -176l-209 228q-164 -227 -385 -228q-203 0 -351 139.5t-148 342.5zM342 438 q0 -88 60.5 -145t148.5 -57q72 0 121 45t92 122l-238 259q-86 -41 -135 -91.5t-49 -132.5zM485 1163q0 -33 20.5 -69.5t36.5 -53.5l52 -53q47 25 73.5 42.5t52 52t25.5 77.5q0 59 -36.5 94t-96.5 35q-53 0 -90 -37t-37 -88z" />
<glyph unicode="'" horiz-adv-x="450" d="M90 1516h272l-53 -607h-166z" />
<glyph unicode="(" horiz-adv-x="778" d="M152 608q0 213 78.5 419t226.5 349q104 102 260 168v-295q-141 -115 -213 -282.5t-72 -356.5q0 -180 75 -361t210 -276v-295q-90 31 -151.5 73t-133.5 118q-133 141 -206.5 339.5t-73.5 399.5z" />
<glyph unicode=")" horiz-adv-x="778" d="M76 -27q141 115 212.5 283t71.5 356q0 180 -74.5 361.5t-209.5 275.5v295q90 -31 151.5 -72.5t132.5 -117.5q133 -141 207 -340t74 -400q0 -213 -79 -418.5t-226 -349.5q-104 -102 -260 -168v295z" />
<glyph unicode="*" horiz-adv-x="901" d="M137 1307l209 -11l-113 170l115 80l105 -188l104 188l115 -80l-115 -170l209 11l-2 -138l-207 11l115 -170l-125 -74l-94 188l-97 -188l-125 74l117 170l-209 -11z" />
<glyph unicode="+" d="M98 395v246h394v395h245v-395h393v-246h-393v-395h-245v395h-394z" />
<glyph unicode="," horiz-adv-x="573" d="M150 0v272h272v-288q0 -125 -73 -199t-197 -74v137q74 14 96 44t22 108h-120z" />
<glyph unicode="-" horiz-adv-x="860" d="M145 471v242h570v-242h-570z" />
<glyph unicode="." horiz-adv-x="573" d="M150 0v272h272v-272h-272z" />
<glyph unicode="/" horiz-adv-x="942" d="M12 -205l641 1721h277l-643 -1721h-275z" />
<glyph unicode="0" horiz-adv-x="1146" d="M66 492v544q0 229 144 369.5t374 140.5q217 0 358 -146.5t141 -363.5v-559q0 -223 -142 -365.5t-366 -142.5q-221 0 -385 166q-124 128 -124 357zM338 508q0 -121 60.5 -201t177 -80t176 77t59.5 198v532q0 104 -65.5 179t-167.5 75q-113 0 -176.5 -74.5t-63.5 -189.5 v-516z" />
<glyph unicode="1" horiz-adv-x="1146" d="M281 1257v259h462v-1516h-272v1257h-190z" />
<glyph unicode="2" horiz-adv-x="1146" d="M74 1044q0 209 144 355.5t353 146.5t354.5 -144.5t145.5 -352.5q0 -150 -78 -272t-215 -245l-307 -274h600v-258h-981v258l541 504q168 156 168 299q0 100 -61.5 163.5t-159.5 63.5q-63 0 -119 -32.5t-84.5 -90t-28.5 -170.5h-270q-2 16 -2 49z" />
<glyph unicode="3" horiz-adv-x="1146" d="M57 457h273q10 -96 79.5 -163t165.5 -67q98 0 170 74t72 172q0 125 -86 188.5t-215 63.5h-45v258h47q82 0 136.5 41t54.5 121q0 143 -136 143q-57 0 -94 -41t-41 -98h-272q25 287 264 373q74 25 139 24q168 0 290 -120.5t122 -288.5q0 -174 -131 -269 q119 -51 179.5 -154.5t60.5 -236.5q0 -217 -152 -362.5t-369 -145.5q-209 0 -354.5 139.5t-157.5 348.5z" />
<glyph unicode="4" horiz-adv-x="1146" d="M31 227v224l696 1065h229v-1031h160v-258h-160v-227h-272v227h-653zM324 485h360v570h-4z" />
<glyph unicode="5" horiz-adv-x="1146" d="M51 451h273q18 -98 80.5 -161t158.5 -63q113 0 186.5 79t73.5 192q0 106 -74.5 186t-181.5 80q-121 0 -205 -109l-243 68l143 793h686v-259h-481l-49 -278q98 43 194 43q207 0 345.5 -157.5t138.5 -366.5q0 -219 -154 -374t-373 -155q-201 0 -355.5 141.5t-162.5 340.5z " />
<glyph unicode="6" horiz-adv-x="1146" d="M47 512q0 172 123 358l422 643h319l-336 -512q20 6 64 7q197 0 328 -146.5t131 -347.5q0 -225 -150.5 -385t-374.5 -160q-225 0 -375.5 158t-150.5 385zM319 500q0 -111 73 -192t181 -81q106 0 179 78t73 184q0 109 -74.5 188t-183.5 79q-102 0 -175 -76t-73 -180z" />
<glyph unicode="7" horiz-adv-x="1146" d="M127 1257v259h893v-259l-547 -1257h-303l565 1257h-608z" />
<glyph unicode="8" horiz-adv-x="1146" d="M68 461q0 262 225 381q-135 131 -135 286q0 176 119.5 297t296 121t297 -120.5t120.5 -297.5q0 -154 -137 -286q225 -119 225 -381q0 -205 -150.5 -348.5t-355 -143.5t-355 143.5t-150.5 348.5zM340 461q0 -96 68.5 -165t165 -69t165 69t68.5 165t-68.5 164.5t-165 68.5 t-165 -68.5t-68.5 -164.5zM414 1124q0 -66 47 -113.5t112.5 -47.5t113.5 48t48 113q0 68 -47 116t-114.5 48t-113.5 -48t-46 -116z" />
<glyph unicode="9" horiz-adv-x="1146" d="M49 999q0 225 150.5 385t373.5 160q225 0 376 -157.5t151 -385.5q0 -172 -123 -358l-422 -643h-319l335 512q-20 -6 -63 -6q-197 0 -328 146t-131 347zM322 1024q0 -115 70.5 -190.5t182.5 -75.5q104 0 178 75.5t74 180.5q0 111 -71.5 191.5t-180 80.5t-181 -76.5 t-72.5 -185.5z" />
<glyph unicode=":" horiz-adv-x="573" d="M150 0v272h272v-272h-272zM150 864v273h272v-273h-272z" />
<glyph unicode=";" horiz-adv-x="573" d="M150 0v272h272v-288q0 -125 -73 -199t-197 -74v137q74 14 96 44t22 108h-120zM150 864v273h272v-273h-272z" />
<glyph unicode="&#x3c;" d="M94 422v192l1041 439v-236l-721 -299l721 -299v-235z" />
<glyph unicode="=" d="M98 166v246h1032v-246h-1032zM98 625v245h1032v-245h-1032z" />
<glyph unicode="&#x3e;" d="M94 -16v235l721 299l-721 299v236l1041 -439v-192z" />
<glyph unicode="?" horiz-adv-x="1146" d="M78 1073q29 340 301 440q82 33 170 33q199 0 328 -133t129 -334q0 -113 -52.5 -194.5t-154.5 -177.5q-74 -70 -102.5 -118t-28.5 -136v-70h-273v59q0 117 35 206t85 140.5t99.5 94.5t84 91t34.5 105q0 90 -52 142.5t-140 52.5q-96 0 -136 -50t-55 -151h-272zM395 0v272 h273v-272h-273z" />
<glyph unicode="@" horiz-adv-x="1515" d="M102 719q0 309 220.5 524t529.5 215q274 0 479 -170t205 -438q0 -172 -85 -312.5t-237 -215.5q-90 -45 -163 -46q-51 0 -84 32t-35 85h-4q-84 -117 -223 -117q-129 0 -216.5 99.5t-87.5 230.5q0 201 123 358.5t318 157.5q166 0 213 -141h4l31 113h170l-138 -525 q-16 -66 -16 -80q0 -41 37 -40q70 0 128 74.5t83 154.5q23 72 22 139q0 229 -147.5 363.5t-378.5 134.5q-250 0 -415 -175t-165 -427q0 -260 170 -427t430 -167q127 0 245 48t200 138h155q-100 -156 -260.5 -243t-347.5 -87q-317 0 -538.5 213.5t-221.5 530.5zM580 631 q0 -80 42 -131t119 -51q111 0 187 105t76 222q0 74 -43 124t-115 50q-113 0 -189.5 -102t-76.5 -217z" />
<glyph unicode="A" horiz-adv-x="1515" d="M14 0l631 1516h219l635 -1516h-309l-162 391h-543l-161 -391h-310zM580 655h348l-172 465h-4z" />
<glyph unicode="B" horiz-adv-x="1187" d="M143 0v1516h328q96 0 158.5 -5.5t142.5 -33t137.5 -78.5t93 -128t35.5 -155q0 -193 -170 -289q260 -94 260 -376q0 -233 -188 -361q-133 -90 -391 -90h-406zM424 262h141q283 0 283 199q0 106 -81 154.5t-196 48.5h-147v-402zM424 926h106q227 0 227.5 163.5 t-216.5 163.5h-117v-327z" />
<glyph unicode="C" horiz-adv-x="1597" d="M70 764q0 322 231 552t553 230q233 0 427 -125t288 -338h-320q-172 201 -405 201q-205 0 -349.5 -158.5t-144.5 -365.5q0 -209 148.5 -369t355.5 -160t381 191h326q-86 -205 -282 -329t-419 -124q-326 0 -558 234.5t-232 560.5z" />
<glyph unicode="D" horiz-adv-x="1433" d="M129 0v1516h344q422 0 623 -177q119 -104 184.5 -261.5t65.5 -323.5q0 -199 -97.5 -381.5t-265.5 -274.5q-178 -98 -504 -98h-350zM410 262h59q238 0 369 74q106 59 166.5 174t60.5 244q0 104 -42 204.5t-120 167.5q-66 59 -157 88t-156.5 34t-179.5 5v-991z" />
<glyph unicode="E" horiz-adv-x="1064" d="M125 0v1516h815v-263h-534v-370h512v-262h-512v-359h534v-262h-815z" />
<glyph unicode="F" horiz-adv-x="983" d="M125 0v1516h772v-263h-491v-370h468v-262h-468v-621h-281z" />
<glyph unicode="G" horiz-adv-x="1720" d="M55 758q0 328 240 558t567 230q233 0 446.5 -132t288.5 -343h-335q-66 100 -175.5 156.5t-230.5 56.5q-219 0 -369.5 -154.5t-150.5 -373.5q0 -102 43 -205q63 -152 193 -236t298 -84q143 0 263 75t186 204h-635v262h989v-33q0 -319 -239.5 -544.5t-563.5 -225.5 q-334 0 -574.5 228.5t-240.5 560.5z" />
<glyph unicode="H" horiz-adv-x="1392" d="M145 0v1516h281v-617h543v617h280v-1516h-280v637h-543v-637h-281z" />
<glyph unicode="I" horiz-adv-x="573" d="M147 0v1516h281v-1516h-281z" />
<glyph unicode="J" horiz-adv-x="983" d="M4 356h283q29 -125 133 -125q72 0 104.5 51.5t32.5 129.5v1104h281v-1086q0 -326 -244 -426q-82 -35 -170 -35q-174 0 -282.5 105.5t-137.5 281.5z" />
<glyph unicode="K" horiz-adv-x="1269" d="M182 0v1516h281v-656h4l473 656h330l-572 -746l572 -770h-330l-473 666h-4v-666h-281z" />
<glyph unicode="L" horiz-adv-x="901" d="M147 0v1516h281v-1254h463v-262h-744z" />
<glyph unicode="M" horiz-adv-x="1843" d="M129 0v1516h389l404 -1147h4l399 1147h389v-1516h-280v1137h-7l-387 -1137h-237l-389 1137h-4v-1137h-281z" />
<glyph unicode="N" horiz-adv-x="1515" d="M143 0v1516h320l627 -1102h4v1102h280v-1516h-313l-633 1102h-4v-1102h-281z" />
<glyph unicode="O" horiz-adv-x="1720" d="M68 754q0 330 231 561t561 231t561.5 -231.5t231.5 -560.5q0 -326 -232.5 -555.5t-560.5 -229.5t-560 229.5t-232 555.5zM348 756q0 -213 149.5 -369t362.5 -156t362.5 156t149.5 369q0 217 -148.5 372.5t-363.5 155.5t-363.5 -155.5t-148.5 -372.5z" />
<glyph unicode="P" horiz-adv-x="1146" d="M147 0v1516h400q150 0 243 -21.5t183 -99.5q143 -123 143 -348.5t-143 -348.5q-90 -78 -183.5 -99t-242.5 -21h-119v-578h-281zM428 840h90q66 0 113 7t98 26.5t79 63.5t28 109.5t-26 109.5t-75 63.5t-96 26.5t-111 7h-100v-413z" />
<glyph unicode="Q" horiz-adv-x="1720" d="M66 754q0 330 231 561t561 231q326 0 559.5 -229.5t233.5 -552.5q0 -266 -166 -483q76 -49 203 -50v-262h-39q-176 0 -361 125q-195 -125 -430 -125q-328 0 -560 229.5t-232 555.5zM346 762q0 -23 4 -35q78 18 207 18q180 0 375.5 -87t327.5 -218h4q59 82 82.5 149.5 t23.5 166.5q0 217 -147.5 372.5t-364.5 155.5q-213 0 -362.5 -154.5t-149.5 -367.5zM434 465q68 -106 182.5 -170t241.5 -64q94 0 207 45q-279 207 -510 207q-72 0 -121 -18z" />
<glyph unicode="R" horiz-adv-x="1187" d="M131 0v1516h465q242 0 369 -103q178 -143 178 -366q0 -98 -39 -197.5t-107 -165.5q-92 -86 -252 -125l412 -559h-340l-401 580h-4v-580h-281zM412 791h180q119 0 194.5 59t75.5 174q0 111 -77.5 170t-192.5 59h-180v-462z" />
<glyph unicode="S" horiz-adv-x="1064" d="M25 434h294q8 -90 60.5 -146.5t140.5 -56.5q84 0 146.5 53.5t62.5 137.5q0 35 -8 64.5t-27.5 53t-35 39t-49.5 32t-52 23.5l-60 22q-42 15 -57 22q-104 41 -137 57q-223 117 -223 379q0 186 128 309t316 123q184 0 311.5 -124t137.5 -308h-287q-14 170 -170 170 q-68 0 -112 -43t-44 -111q0 -27 7.5 -49t15.5 -38.5t28.5 -33t32 -24.5t40.5 -20l40 -17q10 -4 46 -15t42 -13q190 -63 294 -172t104 -295q0 -213 -139.5 -348.5t-352.5 -135.5q-203 0 -344 132t-149 333z" />
<glyph unicode="T" horiz-adv-x="860" d="M12 1253v263h844v-263h-283v-1253h-280v1253h-281z" />
<glyph unicode="U" horiz-adv-x="1310" d="M113 553v963h280v-963q0 -322 262.5 -322t262.5 322v963h280v-963q0 -229 -88 -358q-76 -106 -197.5 -166t-255.5 -60q-131 0 -252.5 57.5t-197.5 159.5q-94 125 -94 367z" />
<glyph unicode="V" horiz-adv-x="1433" d="M16 1516h295l406 -1154h4l407 1154h295l-587 -1516h-230z" />
<glyph unicode="W" horiz-adv-x="1843" d="M14 1516h287l262 -1059h4l260 1059h205l254 -1059h4l264 1059h287l-440 -1516h-223l-246 1001h-4l-250 -1001h-221z" />
<glyph unicode="X" horiz-adv-x="1392" d="M8 0l522 756l-522 760h334l354 -529l365 529h323l-524 -760l524 -756h-323l-365 524l-354 -524h-334z" />
<glyph unicode="Y" horiz-adv-x="1269" d="M-4 1516h307l330 -697l332 697h309l-500 -957v-559h-280v559z" />
<glyph unicode="Z" horiz-adv-x="1024" d="M39 0v229l579 1024h-548v263h876v-244l-575 -1010h614v-262h-946z" />
<glyph unicode="[" horiz-adv-x="655" d="M135 369v551q0 494 447 624v-299q-63 -31 -93 -63q-74 -88 -73 -320v-543q0 -129 33.5 -215t132.5 -127v-299q-447 105 -447 691z" />
<glyph unicode="\" horiz-adv-x="1310" d="M197 1516h276l641 -1721h-274z" />
<glyph unicode="]" horiz-adv-x="655" d="M74 -20q61 25 92 61q74 88 74 321v541q0 129 -34 215t-132 127v299q446 -104 446 -690v-551q0 -494 -446 -625v302z" />
<glyph unicode="^" d="M150 768l356 748h217l356 -748h-245l-220 508l-221 -508h-243z" />
<glyph unicode="_" horiz-adv-x="1024" d="M0 -154h1024v-102h-1024v102z" />
<glyph unicode="`" horiz-adv-x="860" d="M102 1473l117 208l455 -276l-109 -188z" />
<glyph unicode="a" horiz-adv-x="1351" d="M55 575q0 250 161 425.5t409 175.5q188 0 336 -136q31 -31 40 -47h5v144h249v-1137h-249v141q-68 -80 -179.5 -129t-218.5 -49q-248 0 -400.5 180t-152.5 432zM328 563q0 -145 97 -247.5t241 -102.5q147 0 239 104.5t92 254t-92 252t-239.5 102.5t-242.5 -106.5 t-95 -256.5z" />
<glyph unicode="b" horiz-adv-x="1351" d="M96 0v1516h273v-482q141 141 354 142q244 0 407.5 -179.5t163.5 -423.5q0 -123 -49 -247q-68 -172 -201 -267.5t-315 -95.5q-123 0 -212 41t-171 133v-137h-250zM352 584q0 -156 94.5 -263.5t247.5 -107.5q147 0 237.5 103.5t90.5 254.5q0 147 -93 251t-239 104 q-141 0 -239.5 -100.5t-98.5 -241.5z" />
<glyph unicode="c" horiz-adv-x="1310" d="M76 573q0 250 177 426.5t425 176.5q199 0 353.5 -113t217.5 -303h-307q-92 166 -264 166q-147 0 -238.5 -103.5t-91.5 -253t96.5 -253t245.5 -103.5q154 0 252 158h307q-68 -188 -219 -298t-350 -110q-252 0 -428 179t-176 431z" />
<glyph unicode="d" horiz-adv-x="1351" d="M70 567q0 184 94 335t262 224q111 49 223 50q213 0 344 -140v480h273v-1516h-250v139h-4q-55 -86 -153.5 -131t-209.5 -45q-246 0 -412.5 179t-166.5 425zM342 578q0 -145 95 -255t241 -110q141 0 238.5 106.5t97.5 250t-97.5 250t-238.5 106.5q-137 0 -236.5 -105.5 t-99.5 -242.5z" />
<glyph unicode="e" horiz-adv-x="1310" d="M63 565q0 256 171.5 433.5t427.5 177.5q248 0 417.5 -172.5t169.5 -419.5q0 -66 -16 -138h-883q8 -39 37 -81q98 -152 277 -152q182 0 262 145h286q-55 -172 -210.5 -283.5t-337.5 -111.5q-254 0 -427.5 174t-173.5 428zM342 666h629q-20 123 -101.5 191.5t-205.5 68.5 q-123 0 -208 -68.5t-114 -191.5z" />
<glyph unicode="f" horiz-adv-x="573" d="M31 895v242h96q18 209 133 317q102 92 238 92h75v-268q-96 -2 -131.5 -26.5t-42.5 -114.5h160v-242h-160v-895h-272v895h-96z" />
<glyph unicode="g" horiz-adv-x="1351" d="M66 580q0 242 168.5 419t410.5 177q244 0 363 -179h4v140h264v-928q0 -215 -89 -378t-276 -241q-123 -53 -256 -53q-193 0 -348 100.5t-223 276.5h311q109 -127 281 -127q150 0 245 101.5t103 252.5l-4 4q-129 -182 -373 -182q-117 0 -225 51q-168 76 -262 229t-94 337z M338 578q0 -150 96 -257.5t244 -107.5q143 0 234.5 109.5t91.5 257.5q0 137 -98.5 241.5t-235.5 104.5q-141 0 -236.5 -102.5t-95.5 -245.5z" />
<glyph unicode="h" d="M111 0v1516h272v-459q125 119 295 119q96 0 193.5 -48.5t156.5 -126.5q90 -117 90 -342v-659h-272v582q0 72 -8.5 125t-31 107t-71.5 83t-123 29q-72 0 -121 -31t-70.5 -86t-29.5 -108.5t-8 -122.5v-578h-272z" />
<glyph unicode="i" horiz-adv-x="491" d="M109 0v1137h272v-1137h-272zM109 1266v250h272v-250h-272z" />
<glyph unicode="j" horiz-adv-x="532" d="M33 -113q78 6 96 42t18 126v1082h273v-1088q0 -184 -102.5 -305t-284.5 -123v266zM147 1266v250h273v-250h-273z" />
<glyph unicode="k" horiz-adv-x="1187" d="M164 0v1516h272v-914h4l363 535h313l-409 -557l462 -580h-344l-385 532h-4v-532h-272z" />
<glyph unicode="l" horiz-adv-x="491" d="M111 0v1516h272v-1516h-272z" />
<glyph unicode="m" horiz-adv-x="1925" d="M111 0v1137h249v-97h5q82 135 297 136q213 0 327 -179q125 178 367 179q246 0 375 -177q86 -121 86 -335v-664h-273v631q0 295 -215 295q-125 0 -188 -107q-41 -68 -41 -231v-588h-273v631q0 127 -54 211t-173 84q-72 0 -119 -32t-66.5 -92.5t-25.5 -110.5t-6 -124v-567 h-272z" />
<glyph unicode="n" d="M111 0v1137h251v-99q141 137 312 138q94 0 188 -43t154 -115q104 -127 104 -387v-631h-272v561q0 365 -230 365q-117 0 -186 -101q-49 -72 -49 -284v-541h-272z" />
<glyph unicode="o" horiz-adv-x="1310" d="M51 567q0 252 177.5 430.5t429 178.5t427 -176.5t175.5 -428.5q0 -258 -172.5 -433t-430.5 -175q-250 0 -428 178t-178 426zM324 567q0 -145 94 -249.5t239 -104.5q141 0 235.5 104.5t94.5 247.5q0 141 -95 251t-235 110q-141 0 -237 -109t-96 -250z" />
<glyph unicode="p" horiz-adv-x="1351" d="M96 -379v1516h250v-133h4q137 172 369 172q246 0 407.5 -177.5t161.5 -425t-162.5 -429t-406.5 -181.5q-111 0 -189.5 34t-160.5 112v-488h-273zM352 569q0 -109 51.5 -194.5t147.5 -128.5q66 -33 133 -33q141 0 236.5 107.5t95.5 249t-94.5 249t-233.5 107.5 q-145 0 -240.5 -106t-95.5 -251z" />
<glyph unicode="q" horiz-adv-x="1351" d="M63 580q0 240 169 418t407 178q242 0 362 -183h5v144h249v-1516h-272v488q-133 -145 -346 -146q-246 0 -410 183.5t-164 433.5zM336 573q0 -150 93 -255t241 -105q139 0 233 106.5t94 247.5q0 143 -94 251t-235.5 108t-236.5 -105t-95 -248z" />
<glyph unicode="r" horiz-adv-x="655" d="M129 0v1137h250v-101h4q57 82 110.5 111t155.5 29v-265q-248 -8 -248 -272v-639h-272z" />
<glyph unicode="s" horiz-adv-x="901" d="M39 358h278q33 -145 150 -145q51 0 87 31.5t36 83.5q0 35 -17 59q-12 18 -46.5 36.5t-62.5 29t-76 26.5l-54 19q-254 90 -254 325q0 152 113.5 252.5t267.5 100.5q150 0 257 -100.5t113 -248.5h-266q-20 98 -108 99q-43 0 -74 -28t-31 -71q0 -29 16.5 -48t31 -26.5 t47 -19.5t98.5 -33q156 -49 236.5 -121.5t80.5 -218.5q0 -168 -113.5 -282.5t-283.5 -114.5q-98 0 -190.5 38t-149.5 112q-74 91 -86 245z" />
<glyph unicode="t" horiz-adv-x="614" d="M43 895v242h133v379h273v-379h163v-242h-163v-895h-273v895h-133z" />
<glyph unicode="u" d="M102 535v602h273v-580q0 -344 237 -344q68 0 115 30.5t70.5 84t34 109t10.5 118.5v582h272v-1137h-250v115h-4q-111 -152 -293 -152q-115 0 -217 46t-164 134q-84 122 -84 392z" />
<glyph unicode="v" horiz-adv-x="1146" d="M6 1137h295l274 -754h7l258 754h299l-461 -1137h-213z" />
<glyph unicode="w" horiz-adv-x="1638" d="M23 1137h290l207 -695h4l187 695h217l184 -695h4l209 695h291l-416 -1137h-168l-213 737h-4l-215 -737h-168z" />
<glyph unicode="x" horiz-adv-x="1146" d="M6 0l404 586l-353 551h305l209 -342l207 342h305l-352 -551l408 -586h-324l-244 389l-241 -389h-324z" />
<glyph unicode="y" horiz-adv-x="1187" d="M16 1137h312l258 -729l274 729h309l-653 -1516h-293l209 485z" />
<glyph unicode="z" horiz-adv-x="942" d="M41 0v250l504 637h-447v250h772v-250l-503 -637h538v-250h-864z" />
<glyph unicode="{" horiz-adv-x="696" d="M-6 477v203q76 0 137.5 28.5t61.5 96.5v442q0 88 48 157t132 103q53 23 92 23h184v-184h-92q-84 0 -84 -134v-434q0 -100 -73.5 -146t-182.5 -50v-7q125 -6 190.5 -52t65.5 -163v-434q0 -133 84 -133h92v-184h-184q-39 0 -92 22q-84 35 -132 103.5t-48 156.5v443 q0 74 -59.5 108.5t-139.5 34.5z" />
<glyph unicode="|" d="M477 -512v2048h273v-2048h-273z" />
<glyph unicode="}" horiz-adv-x="696" d="M47 -207h92q84 0 84 133v434q0 117 65.5 163t190.5 52v7q-109 4 -182.5 50t-73.5 146v434q0 133 -84 134h-92v184h184q39 0 93 -23q84 -35 132 -103.5t48 -156.5v-442q0 -68 61.5 -96.5t136.5 -28.5v-203q-80 0 -139 -34.5t-59 -108.5v-443q0 -88 -48 -156.5t-132 -103.5 q-53 -23 -93 -22h-184v184z" />
<glyph unicode="~" d="M137 524q100 182 260 183q82 0 234.5 -70t202.5 -70q39 0 77.5 28t55 48.5t51.5 67.5l74 -201q-45 -59 -72 -90t-79 -60.5t-110 -29.5q-78 0 -213 69.5t-231 69.5q-100 0 -176 -141z" />
<glyph unicode="&#xa1;" horiz-adv-x="573" d="M152 -379v1129h272v-1129h-272zM152 877v260h272v-260h-272z" />
<glyph unicode="&#xa2;" horiz-adv-x="1146" d="M88 784q0 164 105.5 302.5t263.5 168.5v209h258v-209q78 -27 125 -52t96 -75q100 -102 123 -221h-287q-29 45 -82 69.5t-108 24.5q-94 0 -158 -65.5t-64 -159.5t64.5 -158.5t161.5 -64.5q88 0 174 82h299q-53 -135 -132 -213t-212 -119v-223h-258v223q-160 33 -264.5 174 t-104.5 307z" />
<glyph unicode="&#xa3;" horiz-adv-x="1146" d="M-4 637v258h115q-33 78 -33 164q0 199 146.5 343t344.5 144q141 0 259 -77.5t182 -206.5q41 -82 41 -150h-277q-16 76 -71.5 126t-131.5 50q-100 0 -160.5 -71.5t-60.5 -172.5q0 -86 58 -149h426v-258h-224q37 -78 50.5 -124t13.5 -120t-23 -135h23q88 0 146.5 57.5 t58.5 145.5q0 37 -21 102h272q20 -41 21 -104q0 -98 -41 -187q-59 -137 -177 -204.5t-274 -67.5h-581v258h284q39 72 39 148q0 115 -116 231h-289z" />
<glyph unicode="&#xa4;" horiz-adv-x="1232" d="M20 248l170 170q-88 129 -88 280q0 158 93 289l-175 172l136 137l176 -174q129 88 284 88q160 0 283 -86l174 170l133 -135l-170 -170q94 -129 94 -291q0 -156 -88 -280l170 -168l-135 -137l-166 166q-131 -94 -295 -95q-158 0 -294 95l-166 -164zM356 698 q0 -106 77 -184t183 -78q109 0 185 78t76 186.5t-76 185.5t-184.5 77t-184.5 -78t-76 -187z" />
<glyph unicode="&#xa5;" horiz-adv-x="1146" d="M-20 1516h280l315 -590l318 590h274l-282 -515h180v-215h-291l-63 -116v-68h336v-215h-336v-387h-273v387h-340v215h340v68l-65 116h-291v215h180z" />
<glyph unicode="&#xa6;" d="M477 -358v716h273v-716h-273zM477 666v716h273v-716h-273z" />
<glyph unicode="&#xa7;" horiz-adv-x="1146" d="M57 711q0 180 183 301q-59 96 -60 192q0 164 120 253t290 89q190 0 296.5 -99t129.5 -286h-256q-25 135 -168 135q-63 0 -109.5 -27.5t-46.5 -86.5q0 -31 25.5 -58.5t44 -39t59.5 -31.5l336 -172q84 -43 134 -118t50 -167q0 -82 -47 -159t-120 -130q102 -102 102 -246 q0 -178 -129 -281.5t-311 -103.5q-197 0 -325 119t-136 316h256q0 -90 57 -137.5t150 -47.5q70 0 126 34t56 99q0 14 -4 28.5t-9.5 24t-17.5 21.5l-19 18.5t-24.5 17.5t-23.5 14l-27 14q-20 10 -23 12l-340 180q-219 119 -219 322zM313 727q0 -66 117 -127l318 -162 q82 61 81 133q0 31 -20.5 58.5t-41.5 40.5l-56 30l-316 160q-31 -23 -56.5 -60.5t-25.5 -72.5z" />
<glyph unicode="&#xa8;" horiz-adv-x="1024" d="M160 1288v273h274v-273h-274zM592 1288v273h272v-273h-272z" />
<glyph unicode="&#xa9;" horiz-adv-x="1515" d="M-25 757.5q0 325.5 229.5 554t555.5 228.5q324 0 552 -229.5t228 -553t-229.5 -553t-550.5 -229.5q-326 0 -555.5 228.5t-229.5 554zM160 758q0 -250 174 -428t424 -178t424 178t174 428t-174 428t-424 178t-424 -177t-174 -429zM330 760q0 201 119.5 334t320.5 133 q145 0 261 -86t132 -226h-184q-51 158 -209 158q-125 0 -190.5 -92t-65.5 -221q0 -135 63.5 -224.5t192.5 -89.5q86 0 135 37t74 121h184q-16 -139 -132 -225t-261 -86q-201 0 -320.5 133t-119.5 334z" />
<glyph unicode="&#xaa;" horiz-adv-x="737" d="M39 1225q0 131 88 226t217 95q109 0 156 -73h4v53h180v-608h-180v51h-4q-49 -72 -156 -72q-133 0 -219 96.5t-86 231.5zM223 1219q0 -61 40 -104.5t102 -43.5q63 0 103 44t40 107.5t-41 106.5t-102 43q-63 0 -102.5 -45t-39.5 -108z" />
<glyph unicode="&#xab;" horiz-adv-x="942" d="M125 489v207l287 265v-252l-140 -117l140 -119v-252zM532 489v207l287 265v-252l-139 -117l139 -119v-252z" />
<glyph unicode="&#xac;" d="M98 625v245h1032v-649h-245v404h-787z" />
<glyph unicode="&#xad;" horiz-adv-x="860" d="M145 471v242h570v-242h-570z" />
<glyph unicode="&#xae;" horiz-adv-x="1515" d="M-25 757.5q0 325.5 229.5 554t555.5 228.5q324 0 552 -229.5t228 -553t-229.5 -553t-550.5 -229.5q-326 0 -555.5 228.5t-229.5 554zM160 758q0 -250 174 -428t424 -178t424 178t174 428t-174 428t-424 178t-424 -177t-174 -429zM424 303v895h385q133 0 220 -57.5 t87 -186.5q0 -176 -166 -217v-4q86 -25 115 -75t35 -148q0 -8 1 -38t2 -46t3 -42t8 -46.5t14 -34.5h-182q-20 33 -26 166q-2 39 -5.5 59.5t-11.5 49t-28.5 46t-51.5 27.5q-37 10 -63 11h-158v-359h-178zM602 805h172q78 0 119 31.5t41 111.5q0 18 -8 35q-14 43 -50 56.5 t-94 13.5h-180v-248z" />
<glyph unicode="&#xaf;" horiz-adv-x="860" d="M147 1307v227h568v-227h-568z" />
<glyph unicode="&#xb0;" horiz-adv-x="819" d="M117 1165q0 123 85 208t207.5 85t207.5 -85t85 -208t-85 -208t-207.5 -85t-207.5 85t-85 208zM264 1165.5q0 -59.5 43 -105.5t102.5 -46t102.5 46t43 105.5t-43 105.5t-102.5 46t-102.5 -46t-43 -105.5z" />
<glyph unicode="&#xb1;" d="M98 0v246h1032v-246h-1032zM98 700v246h394v320h245v-320h393v-246h-393v-307h-245v307h-394z" />
<glyph unicode="&#xb2;" horiz-adv-x="688" d="M27 1487q0 129 93 216t222 87t223 -86t94 -215q0 -154 -178 -307l-164 -144h342v-176h-622v166l325 301q100 92 101 164q0 53 -34 87t-87 34q-119 0 -119 -164h-194q-2 12 -2 37z" />
<glyph unicode="&#xb3;" horiz-adv-x="688" d="M16 1147h197q4 -55 41 -91t92 -36t92 37t37 92q0 86 -53 111.5t-150 25.5v176h38q9 0 34 4t34 11.5t19.5 24t10.5 40.5q0 72 -70 72q-57 0 -57 -74h-197q6 111 76.5 180.5t181.5 69.5q104 0 183 -72.5t79 -177.5q0 -98 -69 -156q66 -29 101.5 -93t35.5 -140 q0 -135 -98.5 -221t-233.5 -86t-226.5 85t-97.5 218z" />
<glyph unicode="&#xb4;" horiz-adv-x="860" d="M182 1405l455 276l117 -208l-463 -256z" />
<glyph unicode="&#xb5;" horiz-adv-x="1290" d="M147 -369v1506h273v-537q0 -195 45 -276q57 -111 168 -111q76 0 126 36t72.5 102.5t30.5 128t8 141.5v516h273v-1137h-258v98h-6q-78 -135 -246 -135q-137 0 -213 86v-418h-273z" />
<glyph unicode="&#xb6;" d="M-14 1114q0 401 520 402h737v-211h-162v-1516h-231v1516h-199v-1516h-231v938q-193 0 -313.5 98.5t-120.5 288.5z" />
<glyph unicode="&#xb7;" horiz-adv-x="573" d="M150 383v272h272v-272h-272z" />
<glyph unicode="&#xb8;" horiz-adv-x="696" d="M201 -336h108q6 -35 33 -55.5t64 -20.5q43 0 68.5 28t25.5 71q0 41 -28 71.5t-69 30.5q-63 0 -88 -45l-100 39l100 229l103 -14l-49 -111q33 4 51 4q86 0 138 -59t52 -145q0 -92 -56 -146.5t-148 -54.5q-76 0 -140.5 52t-64.5 126z" />
<glyph unicode="&#xb9;" horiz-adv-x="507" d="M51 1595v177h309v-910h-196v733h-113z" />
<glyph unicode="&#xba;" horiz-adv-x="737" d="M47 1221q0 135 94.5 230t229.5 95t228 -94t93 -229q0 -137 -92 -231.5t-229 -94.5q-133 0 -228.5 96.5t-95.5 227.5zM231 1221q0 -59 40 -104.5t99.5 -45.5t98.5 44t39 103.5t-39 106.5t-98 47q-61 0 -100.5 -45t-39.5 -106z" />
<glyph unicode="&#xbb;" horiz-adv-x="942" d="M125 221v252l139 119l-139 117v252l287 -265v-207zM532 221v252l140 119l-140 117v252l287 -265v-207z" />
<glyph unicode="&#xbc;" horiz-adv-x="1445" d="M51 1339v177h309v-910h-196v733h-113zM225 0l627 1516h203l-629 -1516h-201zM680 133v143l434 633h156v-608h100v-168h-100v-133h-185v133h-405zM883 301h202v326h-4z" />
<glyph unicode="&#xbd;" horiz-adv-x="1548" d="M51 1339v177h309v-910h-196v733h-113zM225 0l627 1516h203l-629 -1516h-201zM850 625q0 129 93 216t222 87t223.5 -86t94.5 -215q0 -154 -178 -308l-164 -143h342v-176h-623v166l326 301q100 92 100 164q0 53 -33.5 87t-87.5 34q-119 0 -118 -164h-195q-2 12 -2 37z" />
<glyph unicode="&#xbe;" horiz-adv-x="1720" d="M37 891h196q4 -55 41 -91t92.5 -36t92.5 37t37 92q0 86 -53.5 111.5t-149.5 25.5v176h38q9 0 33.5 4t34 11.5t19.5 24t10 40.5q0 72 -70 72q-57 0 -57 -74h-197q6 111 77 180.5t181 69.5q104 0 183.5 -72.5t79.5 -177.5q0 -98 -70 -156q66 -29 101.5 -93t35.5 -140 q0 -135 -98 -221t-233.5 -86t-226.5 85t-97 218zM500 0l626 1516h203l-629 -1516h-200zM954 133v143l435 633h155v-608h101v-168h-101v-133h-184v133h-406zM1157 301h203v326h-4z" />
<glyph unicode="&#xbf;" horiz-adv-x="1146" d="M139 57q0 113 52.5 195t154.5 178q74 70 102.5 118t28.5 136v70h273v-60q0 -117 -35 -206t-84 -140t-99.5 -94t-85 -91t-34.5 -106q0 -90 52 -142t140 -52q96 0 136 50t55 150h272q-29 -340 -301 -440q-82 -33 -170 -33q-199 0 -328 133t-129 334zM477 864v273h273v-273 h-273z" />
<glyph unicode="&#xc0;" horiz-adv-x="1515" d="M14 0l631 1516h219l635 -1516h-309l-162 391h-543l-161 -391h-310zM430 1882l117 209l454 -276l-108 -189zM580 655h348l-172 465h-4z" />
<glyph unicode="&#xc1;" horiz-adv-x="1515" d="M14 0l631 1516h219l635 -1516h-309l-162 391h-543l-161 -391h-310zM510 1815l455 276l116 -209l-463 -256zM580 655h348l-172 465h-4z" />
<glyph unicode="&#xc2;" horiz-adv-x="1515" d="M14 0l631 1516h219l635 -1516h-309l-162 391h-543l-161 -391h-310zM350 1651l303 282h215l299 -282h-297l-108 131l-115 -131h-297zM580 655h348l-172 465h-4z" />
<glyph unicode="&#xc3;" horiz-adv-x="1515" d="M14 0l631 1516h219l635 -1516h-309l-162 391h-543l-161 -391h-310zM356 1831q117 88 238 88q53 0 151.5 -29.5t149.5 -29.5q84 0 156 47l110 -160q-121 -96 -233 -96q-51 0 -148.5 27.5t-148.5 27.5q-82 0 -164 -41zM580 655h348l-172 465h-4z" />
<glyph unicode="&#xc4;" horiz-adv-x="1515" d="M14 0l631 1516h219l635 -1516h-309l-162 391h-543l-161 -391h-310zM406 1651v272h274v-272h-274zM580 655h348l-172 465h-4zM838 1651v272h272v-272h-272z" />
<glyph unicode="&#xc5;" horiz-adv-x="1515" d="M14 0l631 1516h219l635 -1516h-309l-162 391h-543l-161 -391h-310zM539 1763q0 92 63.5 157t155.5 65t156.5 -65t64.5 -157q0 -90 -65.5 -154.5t-155.5 -64.5t-154.5 65.5t-64.5 153.5zM580 655h348l-172 465h-4zM676 1763.5q0 -34.5 24.5 -58.5t57.5 -24q35 0 59.5 24 t24.5 58.5t-24.5 59t-59.5 24.5t-58.5 -24.5t-23.5 -59z" />
<glyph unicode="&#xc6;" horiz-adv-x="1843" d="M-10 0l1001 1516h697v-263h-451v-370h428v-262h-428v-359h451v-262h-732v391h-401l-236 -391h-329zM721 653h235v400h-4z" />
<glyph unicode="&#xc7;" horiz-adv-x="1597" d="M70 764q0 322 231 552t553 230q233 0 427 -125t288 -338h-320q-172 201 -405 201q-205 0 -349.5 -158.5t-144.5 -365.5q0 -209 148.5 -369t355.5 -160t381 191h326q-86 -205 -282 -329t-419 -124h-24l-37 -82q33 4 51 4q86 0 138 -59t52 -145q0 -92 -56 -146.5 t-148 -54.5q-76 0 -140.5 52t-64.5 126h108q6 -35 33 -55.5t64 -20.5q43 0 68.5 28t25.5 71q0 41 -28 71.5t-68 30.5q-63 0 -89 -45l-100 39l86 197q-283 47 -472 270t-189 514z" />
<glyph unicode="&#xc8;" horiz-adv-x="1064" d="M125 0v1516h815v-263h-534v-370h512v-262h-512v-359h534v-262h-815zM205 1882l117 209l454 -276l-108 -189z" />
<glyph unicode="&#xc9;" horiz-adv-x="1064" d="M125 0v1516h815v-263h-534v-370h512v-262h-512v-359h534v-262h-815zM285 1815l454 276l117 -209l-463 -256z" />
<glyph unicode="&#xca;" horiz-adv-x="1064" d="M125 0v1516h815v-263h-534v-370h512v-262h-512v-359h534v-262h-815zM125 1651l303 282h215l299 -282h-297l-108 131l-115 -131h-297z" />
<glyph unicode="&#xcb;" horiz-adv-x="1064" d="M125 0v1516h815v-263h-534v-370h512v-262h-512v-359h534v-262h-815zM180 1651v272h275v-272h-275zM612 1651v272h273v-272h-273z" />
<glyph unicode="&#xcc;" horiz-adv-x="573" d="M-92 1882l117 209l454 -276l-108 -189zM147 0v1516h281v-1516h-281z" />
<glyph unicode="&#xcd;" horiz-adv-x="573" d="M90 1815l455 276l117 -209l-463 -256zM147 0v1516h281v-1516h-281z" />
<glyph unicode="&#xce;" horiz-adv-x="573" d="M-121 1651l303 282h215l299 -282h-297l-108 131l-115 -131h-297zM147 0v1516h281v-1516h-281z" />
<glyph unicode="&#xcf;" horiz-adv-x="573" d="M-66 1651v272h275v-272h-275zM147 0v1516h281v-1516h-281zM367 1651v272h272v-272h-272z" />
<glyph unicode="&#xd0;" horiz-adv-x="1503" d="M51 637v262h148v617h344q422 0 622 -177q119 -104 184.5 -261.5t65.5 -323.5q0 -199 -97 -381.5t-265 -274.5q-178 -98 -504 -98h-350v637h-148zM479 262h60q238 0 368 74q106 59 167 174t61 244q0 104 -42 204.5t-120 167.5q-66 59 -157 88t-156.5 34t-180.5 5v-354h281 v-262h-281v-375z" />
<glyph unicode="&#xd1;" horiz-adv-x="1515" d="M143 0v1516h320l627 -1102h4v1102h280v-1516h-313l-633 1102h-4v-1102h-281zM356 1831q117 88 238 88q53 0 151.5 -29.5t149.5 -29.5q84 0 156 47l110 -160q-121 -96 -233 -96q-51 0 -148.5 27.5t-148.5 27.5q-82 0 -164 -41z" />
<glyph unicode="&#xd2;" horiz-adv-x="1720" d="M68 754q0 330 231 561t561 231t561.5 -231.5t231.5 -560.5q0 -326 -232.5 -555.5t-560.5 -229.5t-560 229.5t-232 555.5zM348 756q0 -213 149.5 -369t362.5 -156t362.5 156t149.5 369q0 217 -148.5 372.5t-363.5 155.5t-363.5 -155.5t-148.5 -372.5zM532 1882l117 209 l455 -276l-109 -189z" />
<glyph unicode="&#xd3;" horiz-adv-x="1720" d="M68 754q0 330 231 561t561 231t561.5 -231.5t231.5 -560.5q0 -326 -232.5 -555.5t-560.5 -229.5t-560 229.5t-232 555.5zM348 756q0 -213 149.5 -369t362.5 -156t362.5 156t149.5 369q0 217 -148.5 372.5t-363.5 155.5t-363.5 -155.5t-148.5 -372.5zM612 1815l455 276 l117 -209l-463 -256z" />
<glyph unicode="&#xd4;" horiz-adv-x="1720" d="M68 754q0 330 231 561t561 231t561.5 -231.5t231.5 -560.5q0 -326 -232.5 -555.5t-560.5 -229.5t-560 229.5t-232 555.5zM348 756q0 -213 149.5 -369t362.5 -156t362.5 156t149.5 369q0 217 -148.5 372.5t-363.5 155.5t-363.5 -155.5t-148.5 -372.5zM453 1651l303 282 h215l299 -282h-297l-109 131l-114 -131h-297z" />
<glyph unicode="&#xd5;" horiz-adv-x="1720" d="M68 754q0 330 231 561t561 231t561.5 -231.5t231.5 -560.5q0 -326 -232.5 -555.5t-560.5 -229.5t-560 229.5t-232 555.5zM348 756q0 -213 149.5 -369t362.5 -156t362.5 156t149.5 369q0 217 -148.5 372.5t-363.5 155.5t-363.5 -155.5t-148.5 -372.5zM459 1831 q117 88 237 88q53 0 151.5 -29.5t149.5 -29.5q84 0 156 47l111 -160q-121 -96 -234 -96q-51 0 -148.5 27.5t-148.5 27.5q-82 0 -164 -41z" />
<glyph unicode="&#xd6;" horiz-adv-x="1720" d="M68 754q0 330 231 561t561 231t561.5 -231.5t231.5 -560.5q0 -326 -232.5 -555.5t-560.5 -229.5t-560 229.5t-232 555.5zM348 756q0 -213 149.5 -369t362.5 -156t362.5 156t149.5 369q0 217 -148.5 372.5t-363.5 155.5t-363.5 -155.5t-148.5 -372.5zM508 1651v272h274 v-272h-274zM940 1651v272h272v-272h-272z" />
<glyph unicode="&#xd7;" d="M121 193l325 325l-325 326l168 168l325 -326l326 326l168 -168l-328 -326l328 -325l-168 -168l-326 327l-325 -327z" />
<glyph unicode="&#xd8;" horiz-adv-x="1720" d="M68 754q0 330 231 561t561 231q178 0 332 -73v2l129 192l223 -154l-131 -192q240 -227 240 -567q0 -326 -232.5 -555.5t-560.5 -229.5q-168 0 -319 68l-125 -182l-226 153l123 180q-245 230 -245 566zM348 756q0 -186 123 -336l567 831q-84 33 -178 33 q-215 0 -363.5 -155.5t-148.5 -372.5zM692 260q82 -29 168 -29q213 0 362.5 156t149.5 369q0 184 -115 334z" />
<glyph unicode="&#xd9;" horiz-adv-x="1310" d="M113 553v963h280v-963q0 -322 262.5 -322t262.5 322v963h280v-963q0 -229 -88 -358q-76 -106 -197.5 -166t-255.5 -60q-131 0 -252.5 57.5t-197.5 159.5q-94 125 -94 367zM256 1882l117 209l454 -276l-108 -189z" />
<glyph unicode="&#xda;" horiz-adv-x="1310" d="M113 553v963h280v-963q0 -322 262.5 -322t262.5 322v963h280v-963q0 -229 -88 -358q-76 -106 -197.5 -166t-255.5 -60q-131 0 -252.5 57.5t-197.5 159.5q-94 125 -94 367zM479 1815l455 276l117 -209l-463 -256z" />
<glyph unicode="&#xdb;" horiz-adv-x="1310" d="M113 553v963h280v-963q0 -322 262.5 -322t262.5 322v963h280v-963q0 -229 -88 -358q-76 -106 -197.5 -166t-255.5 -60q-131 0 -252.5 57.5t-197.5 159.5q-94 125 -94 367zM248 1651l303 282h215l299 -282h-297l-109 131l-114 -131h-297z" />
<glyph unicode="&#xdc;" horiz-adv-x="1310" d="M113 553v963h280v-963q0 -322 262.5 -322t262.5 322v963h280v-963q0 -229 -88 -358q-76 -106 -197.5 -166t-255.5 -60q-131 0 -252.5 57.5t-197.5 159.5q-94 125 -94 367zM303 1651v272h275v-272h-275zM735 1651v272h273v-272h-273z" />
<glyph unicode="&#xdd;" horiz-adv-x="1269" d="M-4 1516h307l330 -697l332 697h309l-500 -957v-559h-280v559zM459 1815l454 276l117 -209l-463 -256z" />
<glyph unicode="&#xde;" horiz-adv-x="1146" d="M147 0v1516h281v-287h119q150 0 243 -21.5t183 -99.5q143 -123 143 -348t-143 -348q-90 -78 -183.5 -99.5t-242.5 -21.5h-119v-291h-281zM428 553h90q66 0 113 7t98 26.5t79 63.5t28 109.5t-26 109.5t-75 63.5t-96 27t-111 7.5h-100v-414z" />
<glyph unicode="&#xdf;" d="M104 0v999q0 399 291 514q86 33 170 33q182 0 311.5 -124t129.5 -306q0 -199 -136 -278q154 -37 241 -140.5t87 -259.5q0 -213 -123 -344t-334 -131q-272 0 -383 187h-4v-150h-250zM377 387h176q10 -72 64.5 -123t123.5 -51q80 0 132.5 57.5t52.5 139.5q0 80 -36 131 t-102.5 72.5t-123 27.5t-136.5 6v242q96 0 150.5 59.5t54.5 155.5q0 84 -46 138t-128 54q-182 0 -182 -266v-643z" />
<glyph unicode="&#xe0;" horiz-adv-x="1351" d="M55 575q0 250 161 425.5t409 175.5q188 0 336 -136q31 -31 40 -47h5v144h249v-1137h-249v141q-68 -80 -179.5 -129t-218.5 -49q-248 0 -400.5 180t-152.5 432zM328 563q0 -145 97 -247.5t241 -102.5q147 0 239 104.5t92 254t-92 252t-239.5 102.5t-242.5 -106.5 t-95 -256.5zM348 1534l117 209l455 -277l-109 -188z" />
<glyph unicode="&#xe1;" horiz-adv-x="1351" d="M55 575q0 250 161 425.5t409 175.5q188 0 336 -136q31 -31 40 -47h5v144h249v-1137h-249v141q-68 -80 -179.5 -129t-218.5 -49q-248 0 -400.5 180t-152.5 432zM328 563q0 -145 97 -247.5t241 -102.5q147 0 239 104.5t92 254t-92 252t-239.5 102.5t-242.5 -106.5 t-95 -256.5zM428 1466l455 277l116 -209l-462 -256z" />
<glyph unicode="&#xe2;" horiz-adv-x="1351" d="M55 575q0 250 161 425.5t409 175.5q188 0 336 -136q31 -31 40 -47h5v144h249v-1137h-249v141q-68 -80 -179.5 -129t-218.5 -49q-248 0 -400.5 180t-152.5 432zM268 1303l303 282h215l299 -282h-297l-108 131l-115 -131h-297zM328 563q0 -145 97 -247.5t241 -102.5 q147 0 239 104.5t92 254t-92 252t-239.5 102.5t-242.5 -106.5t-95 -256.5z" />
<glyph unicode="&#xe3;" horiz-adv-x="1351" d="M55 575q0 250 161 425.5t409 175.5q188 0 336 -136q31 -31 40 -47h5v144h249v-1137h-249v141q-68 -80 -179.5 -129t-218.5 -49q-248 0 -400.5 180t-152.5 432zM274 1483q117 88 238 88q53 0 151.5 -30t149.5 -30q84 0 156 48l110 -160q-121 -96 -233 -96 q-51 0 -148.5 27.5t-148.5 27.5q-82 0 -164 -41zM328 563q0 -145 97 -247.5t241 -102.5q147 0 239 104.5t92 254t-92 252t-239.5 102.5t-242.5 -106.5t-95 -256.5z" />
<glyph unicode="&#xe4;" horiz-adv-x="1351" d="M55 575q0 250 161 425.5t409 175.5q188 0 336 -136q31 -31 40 -47h5v144h249v-1137h-249v141q-68 -80 -179.5 -129t-218.5 -49q-248 0 -400.5 180t-152.5 432zM324 1303v272h274v-272h-274zM328 563q0 -145 97 -247.5t241 -102.5q147 0 239 104.5t92 254t-92 252 t-239.5 102.5t-242.5 -106.5t-95 -256.5zM756 1303v272h272v-272h-272z" />
<glyph unicode="&#xe5;" horiz-adv-x="1351" d="M55 575q0 250 161 425.5t409 175.5q188 0 336 -136q31 -31 40 -47h5v144h249v-1137h-249v141q-68 -80 -179.5 -129t-218.5 -49q-248 0 -400.5 180t-152.5 432zM328 563q0 -145 97 -247.5t241 -102.5q147 0 239 104.5t92 254t-92 252t-239.5 102.5t-242.5 -106.5 t-95 -256.5zM457 1487q0 92 63.5 156.5t155.5 64.5t156.5 -64.5t64.5 -156.5q0 -90 -65.5 -154.5t-155.5 -64.5t-154.5 64.5t-64.5 154.5zM594 1487q0 -33 24.5 -57.5t57.5 -24.5q35 0 59.5 23.5t24.5 58.5t-24.5 59.5t-59.5 24.5t-58.5 -24.5t-23.5 -59.5z" />
<glyph unicode="&#xe6;" horiz-adv-x="2211" d="M59 567q0 246 171 427.5t415 181.5q113 0 190.5 -32t157.5 -110v103h250v-103q133 141 348 142q223 0 389 -183.5t166 -408.5v-37q0 -57 -8 -101h-885q25 -98 113 -165.5t193 -67.5q86 0 162.5 37t107.5 108h287q-23 -68 -76 -143q-84 -115 -206 -183.5t-255 -68.5 q-217 0 -332 152h-4v-115h-250v115h-4q-106 -152 -348 -152t-412 180t-170 424zM332 565q0 -139 94 -245.5t231 -106.5q141 0 234.5 106.5t93.5 249.5q0 141 -93 249t-233 108q-143 0 -235 -108t-92 -253zM1245 666h629q-16 119 -104.5 189.5t-208.5 70.5q-117 0 -203 -72.5 t-113 -187.5z" />
<glyph unicode="&#xe7;" horiz-adv-x="1310" d="M76 573q0 250 177 426.5t425 176.5q199 0 353.5 -113t217.5 -303h-307q-92 166 -264 166q-147 0 -238.5 -103.5t-91.5 -253t96.5 -253t245.5 -103.5q154 0 252 158h307q-70 -193 -221 -300.5t-354 -107.5l-35 -76q33 4 51 4q86 0 138.5 -59t52.5 -145q0 -92 -56.5 -146.5 t-148.5 -54.5q-76 0 -139.5 51t-65.5 127h109q6 -35 32.5 -55.5t63.5 -20.5q43 0 68.5 28t25.5 71q0 41 -27.5 71.5t-68.5 30.5q-63 0 -88 -45l-101 39l84 192q-217 41 -355 209t-138 389z" />
<glyph unicode="&#xe8;" horiz-adv-x="1310" d="M63 565q0 256 171.5 433.5t427.5 177.5q248 0 417.5 -172.5t169.5 -419.5q0 -66 -16 -138h-883q8 -39 37 -81q98 -152 277 -152q182 0 262 145h286q-55 -172 -210.5 -283.5t-337.5 -111.5q-254 0 -427.5 174t-173.5 428zM328 1534l116 209l455 -277l-108 -188zM342 666 h629q-20 123 -101.5 191.5t-205.5 68.5q-123 0 -208 -68.5t-114 -191.5z" />
<glyph unicode="&#xe9;" horiz-adv-x="1310" d="M63 565q0 256 171.5 433.5t427.5 177.5q248 0 417.5 -172.5t169.5 -419.5q0 -66 -16 -138h-883q8 -39 37 -81q98 -152 277 -152q182 0 262 145h286q-55 -172 -210.5 -283.5t-337.5 -111.5q-254 0 -427.5 174t-173.5 428zM342 666h629q-20 123 -101.5 191.5t-205.5 68.5 q-123 0 -208 -68.5t-114 -191.5zM408 1466l454 277l117 -209l-463 -256z" />
<glyph unicode="&#xea;" horiz-adv-x="1310" d="M63 565q0 256 171.5 433.5t427.5 177.5q248 0 417.5 -172.5t169.5 -419.5q0 -66 -16 -138h-883q8 -39 37 -81q98 -152 277 -152q182 0 262 145h286q-55 -172 -210.5 -283.5t-337.5 -111.5q-254 0 -427.5 174t-173.5 428zM248 1303l303 282h215l299 -282h-297l-109 131 l-114 -131h-297zM342 666h629q-20 123 -101.5 191.5t-205.5 68.5q-123 0 -208 -68.5t-114 -191.5z" />
<glyph unicode="&#xeb;" horiz-adv-x="1310" d="M63 565q0 256 171.5 433.5t427.5 177.5q248 0 417.5 -172.5t169.5 -419.5q0 -66 -16 -138h-883q8 -39 37 -81q98 -152 277 -152q182 0 262 145h286q-55 -172 -210.5 -283.5t-337.5 -111.5q-254 0 -427.5 174t-173.5 428zM303 1303v272h275v-272h-275zM342 666h629 q-20 123 -101.5 191.5t-205.5 68.5q-123 0 -208 -68.5t-114 -191.5zM735 1303v272h273v-272h-273z" />
<glyph unicode="&#xec;" horiz-adv-x="491" d="M-133 1534l117 209l454 -277l-108 -188zM109 0v1137h272v-1137h-272z" />
<glyph unicode="&#xed;" horiz-adv-x="491" d="M49 1466l455 277l117 -209l-463 -256zM109 0v1137h272v-1137h-272z" />
<glyph unicode="&#xee;" horiz-adv-x="491" d="M-162 1303l303 282h215l299 -282h-297l-108 131l-115 -131h-297zM109 0v1137h272v-1137h-272z" />
<glyph unicode="&#xef;" horiz-adv-x="491" d="M-106 1303v272h274v-272h-274zM109 0v1137h272v-1137h-272zM326 1303v272h272v-272h-272z" />
<glyph unicode="&#xf0;" horiz-adv-x="1310" d="M55 567q0 252 177.5 429.5t429.5 177.5q61 0 106 -23l4 4q-66 61 -135 109l-309 -93l-176 115l294 90q-106 51 -217 84l308 84q78 -23 186 -82l268 82l176 -123l-270 -80q365 -307 365 -737q0 -270 -166 -455.5t-434 -185.5q-250 0 -428.5 178t-178.5 426zM328 567 q0 -145 94 -249.5t240 -104.5q141 0 235 104.5t94 247.5q0 141 -94 251t-233 110q-143 0 -239.5 -108t-96.5 -251z" />
<glyph unicode="&#xf1;" d="M111 0v1137h251v-99q141 137 312 138q94 0 188 -43t154 -115q104 -127 104 -387v-631h-272v561q0 365 -230 365q-117 0 -186 -101q-49 -72 -49 -284v-541h-272zM213 1483q117 88 238 88q53 0 151 -30t150 -30q84 0 155 48l111 -160q-121 -96 -234 -96q-51 0 -148 27.5 t-149 27.5q-82 0 -163 -41z" />
<glyph unicode="&#xf2;" horiz-adv-x="1310" d="M51 567q0 252 177.5 430.5t429 178.5t427 -176.5t175.5 -428.5q0 -258 -172.5 -433t-430.5 -175q-250 0 -428 178t-178 426zM324 567q0 -145 94 -249.5t239 -104.5q141 0 235.5 104.5t94.5 247.5q0 141 -95 251t-235 110q-141 0 -237 -109t-96 -250zM328 1534l116 209 l455 -277l-108 -188z" />
<glyph unicode="&#xf3;" horiz-adv-x="1310" d="M51 567q0 252 177.5 430.5t429 178.5t427 -176.5t175.5 -428.5q0 -258 -172.5 -433t-430.5 -175q-250 0 -428 178t-178 426zM324 567q0 -145 94 -249.5t239 -104.5q141 0 235.5 104.5t94.5 247.5q0 141 -95 251t-235 110q-141 0 -237 -109t-96 -250zM408 1466l454 277 l117 -209l-463 -256z" />
<glyph unicode="&#xf4;" horiz-adv-x="1310" d="M51 567q0 252 177.5 430.5t429 178.5t427 -176.5t175.5 -428.5q0 -258 -172.5 -433t-430.5 -175q-250 0 -428 178t-178 426zM248 1303l303 282h215l299 -282h-297l-109 131l-114 -131h-297zM324 567q0 -145 94 -249.5t239 -104.5q141 0 235.5 104.5t94.5 247.5 q0 141 -95 251t-235 110q-141 0 -237 -109t-96 -250z" />
<glyph unicode="&#xf5;" horiz-adv-x="1310" d="M51 567q0 252 177.5 430.5t429 178.5t427 -176.5t175.5 -428.5q0 -258 -172.5 -433t-430.5 -175q-250 0 -428 178t-178 426zM254 1483q117 88 238 88q53 0 151 -30t150 -30q84 0 155 48l111 -160q-121 -96 -234 -96q-51 0 -148 27.5t-149 27.5q-82 0 -163 -41zM324 567 q0 -145 94 -249.5t239 -104.5q141 0 235.5 104.5t94.5 247.5q0 141 -95 251t-235 110q-141 0 -237 -109t-96 -250z" />
<glyph unicode="&#xf6;" horiz-adv-x="1310" d="M51 567q0 252 177.5 430.5t429 178.5t427 -176.5t175.5 -428.5q0 -258 -172.5 -433t-430.5 -175q-250 0 -428 178t-178 426zM303 1303v272h275v-272h-275zM324 567q0 -145 94 -249.5t239 -104.5q141 0 235.5 104.5t94.5 247.5q0 141 -95 251t-235 110q-141 0 -237 -109 t-96 -250zM735 1303v272h273v-272h-273z" />
<glyph unicode="&#xf7;" d="M98 395v246h1032v-246h-1032zM492 -41v246h245v-246h-245zM492 831v246h245v-246h-245z" />
<glyph unicode="&#xf8;" horiz-adv-x="1351" d="M72 567q0 252 177 430.5t429 178.5q125 0 237 -50q2 2 39 56.5t41 62.5l203 -141l-82 -119q164 -174 164 -414q0 -258 -172 -433t-430 -175q-115 0 -227 45l-78 -110l-203 139l76 110q-174 174 -174 420zM344 567q0 -109 55 -196l369 540q-41 14 -90 15 q-141 0 -237.5 -109t-96.5 -250zM596 223q45 -10 82 -10q141 0 235.5 104.5t94.5 247.5q0 104 -52 187z" />
<glyph unicode="&#xf9;" d="M102 535v602h273v-580q0 -344 237 -344q68 0 115 30.5t70.5 84t34 109t10.5 118.5v582h272v-1137h-250v115h-4q-111 -152 -293 -152q-115 0 -217 46t-164 134q-84 122 -84 392zM215 1534l117 209l454 -277l-108 -188z" />
<glyph unicode="&#xfa;" d="M102 535v602h273v-580q0 -344 237 -344q68 0 115 30.5t70.5 84t34 109t10.5 118.5v582h272v-1137h-250v115h-4q-111 -152 -293 -152q-115 0 -217 46t-164 134q-84 122 -84 392zM438 1466l455 277l117 -209l-463 -256z" />
<glyph unicode="&#xfb;" d="M102 535v602h273v-580q0 -344 237 -344q68 0 115 30.5t70.5 84t34 109t10.5 118.5v582h272v-1137h-250v115h-4q-111 -152 -293 -152q-115 0 -217 46t-164 134q-84 122 -84 392zM207 1303l303 282h215l299 -282h-297l-109 131l-114 -131h-297z" />
<glyph unicode="&#xfc;" d="M102 535v602h273v-580q0 -344 237 -344q68 0 115 30.5t70.5 84t34 109t10.5 118.5v582h272v-1137h-250v115h-4q-111 -152 -293 -152q-115 0 -217 46t-164 134q-84 122 -84 392zM262 1303v272h275v-272h-275zM694 1303v272h273v-272h-273z" />
<glyph unicode="&#xfd;" horiz-adv-x="1187" d="M16 1137h312l258 -729l274 729h309l-653 -1516h-293l209 485zM418 1466l454 277l117 -209l-463 -256z" />
<glyph unicode="&#xfe;" horiz-adv-x="1351" d="M96 -379v1895h273v-504h4q133 164 346 164q246 0 407.5 -177.5t161.5 -425t-162.5 -429t-406.5 -181.5q-199 0 -350 146v-488h-273zM352 569q0 -109 51.5 -194.5t147.5 -128.5q66 -33 133 -33q141 0 236.5 107.5t95.5 249t-94.5 249t-233.5 107.5q-145 0 -240.5 -106 t-95.5 -251z" />
<glyph unicode="&#xff;" horiz-adv-x="1187" d="M16 1137h312l258 -729l274 729h309l-653 -1516h-293l209 485zM242 1303v272h274v-272h-274zM674 1303v272h272v-272h-272z" />
<glyph unicode="&#x152;" horiz-adv-x="2170" d="M76 756q0 238 118.5 431t331.5 290q150 70 310 69q137 0 274 -51t221 -143v164h731v-263h-450v-370h426v-262h-426v-359h450v-262h-731v162q-84 -90 -222 -141.5t-273 -51.5q-160 0 -310 70q-211 98 -330.5 289.5t-119.5 427.5zM356 729q0 -88 37 -178 q59 -145 181 -232.5t278 -87.5q207 0 348 154t141 363q0 213 -142 374.5t-353 161.5q-221 0 -355.5 -165t-134.5 -390z" />
<glyph unicode="&#x153;" horiz-adv-x="2211" d="M61 567q0 250 175.5 429.5t422.5 179.5q283 0 453 -234q174 233 447 234q244 0 417.5 -171t173.5 -415q0 -74 -12 -144h-889q31 -102 118 -167.5t194 -65.5q86 0 160.5 37t107.5 108h282q-57 -174 -211.5 -284.5t-338.5 -110.5q-135 0 -255 62.5t-194 175.5 q-158 -238 -457 -238q-248 0 -421 177t-173 427zM334 578q0 -147 93 -256t239 -109q141 0 235 106.5t94 247.5q0 143 -95 251t-236 108q-137 0 -233.5 -104.5t-96.5 -243.5zM1245 666h629q-29 117 -113 188.5t-200 71.5q-121 0 -202 -69.5t-114 -190.5z" />
<glyph unicode="&#x178;" horiz-adv-x="1269" d="M-4 1516h307l330 -697l332 697h309l-500 -957v-559h-280v559zM283 1651v272h274v-272h-274zM715 1651v272h272v-272h-272z" />
<glyph unicode="&#x2c6;" horiz-adv-x="1105" d="M145 1292l304 283h215l299 -283h-297l-109 131l-115 -131h-297z" />
<glyph unicode="&#x2dc;" horiz-adv-x="983" d="M90 1483q117 88 238 88q53 0 151.5 -30t149.5 -30q84 0 155 48l111 -160q-121 -96 -233 -96q-51 0 -148.5 27.5t-148.5 27.5q-82 0 -164 -41z" />
<glyph unicode="&#x2013;" horiz-adv-x="1024" d="M72 471v242h880v-242h-880z" />
<glyph unicode="&#x2014;" horiz-adv-x="2048" d="M72 471v242h1904v-242h-1904z" />
<glyph unicode="&#x2018;" horiz-adv-x="573" d="M147 954v289q0 125 73 199t198 74v-140q-57 -10 -88 -34.5t-31 -79.5q0 -23 2 -35h119v-273h-273z" />
<glyph unicode="&#x2019;" horiz-adv-x="573" d="M147 1243v273h273v-289q0 -125 -73 -199t-197 -74v138q74 14 96 43.5t22 107.5h-121z" />
<glyph unicode="&#x201a;" horiz-adv-x="573" d="M147 0v272h273v-286q0 -125 -73 -200t-197 -75v139q74 12 96 42t22 108h-121z" />
<glyph unicode="&#x201c;" horiz-adv-x="983" d="M143 954v289q0 125 73 199t198 74v-140q-57 -10 -88 -34.5t-31 -79.5q0 -6 1 -17.5t1 -17.5h119v-273h-273zM567 954v289q0 125 73 199t198 74v-140q-57 -10 -88 -34.5t-31 -79.5q0 -6 1 -17.5t1 -17.5h119v-273h-273z" />
<glyph unicode="&#x201d;" horiz-adv-x="983" d="M143 1243v273h273v-289q0 -125 -73 -199t-198 -74v138q74 14 96.5 43.5t22.5 107.5h-121zM567 1243v273h273v-289q0 -125 -73 -199t-198 -74v138q74 14 96.5 43.5t22.5 107.5h-121z" />
<glyph unicode="&#x201e;" horiz-adv-x="983" d="M143 0v272h273v-286q0 -127 -73 -201t-198 -74v139q74 12 96.5 42t22.5 108h-121zM567 0v272h273v-286q0 -127 -73 -201t-198 -74v139q74 12 96.5 42t22.5 108h-121z" />
<glyph unicode="&#x2022;" d="M303 772q0 131 92 224.5t223 93.5q129 0 219.5 -94.5t90.5 -223.5t-91.5 -223t-220.5 -94t-221 94t-92 223z" />
<glyph unicode="&#x2026;" horiz-adv-x="2048" d="M205 0v272h272v-272h-272zM887 0v272h272v-272h-272zM1569 0v272h272v-272h-272z" />
<glyph unicode="&#x2039;" horiz-adv-x="491" d="M102 489v207l287 265v-252l-139 -117l139 -119v-252z" />
<glyph unicode="&#x203a;" horiz-adv-x="491" d="M102 221v252l140 119l-140 117v252l287 -265v-207z" />
<glyph unicode="&#x20ac;" horiz-adv-x="1146" d="M0 481l70 195h84v82v30h-154l70 195h98q35 260 129 381q137 180 365 180q195 0 315 -125q102 -111 125 -297h-256q-18 86 -53 117q-47 47 -131 47q-121 0 -177 -98q-33 -55 -49 -205h557l-69 -195h-498v-30v-82h457l-72 -195h-369q18 -117 43 -155q53 -96 181 -97 q94 0 141 54q29 31 47 114h254q-33 -213 -135 -311q-119 -115 -318 -115q-223 0 -352 156q-98 117 -133 354h-170z" />
<glyph unicode="&#x2122;" horiz-adv-x="2048" d="M18 1346v170h543v-170h-176v-740h-192v740h-175zM682 606v910h258l244 -660l241 660h256v-910h-192v627h-4l-223 -627h-160l-223 627h-5v-627h-192z" />
<glyph unicode="&#xe000;" horiz-adv-x="1135" d="M0 1135h1135v-1135h-1135v1135z" />
<glyph unicode="&#xfb01;" horiz-adv-x="1064" d="M51 895v242h96q18 209 134 317q102 92 237 92h76v-268q-96 -2 -132 -26.5t-42 -114.5h524v-1137h-272v895h-252v-895h-273v895h-96zM672 1266v250h272v-250h-272z" />
<glyph unicode="&#xfb02;" horiz-adv-x="1064" d="M51 895v242h96q18 209 134 317q102 92 237 92h76v-268q-96 -2 -132 -26.5t-42 -114.5h252v379h272v-1516h-272v895h-252v-895h-273v895h-96z" />
<glyph unicode="&#xfb03;" horiz-adv-x="1558" d="M31 895v242h96q12 162 116.5 270.5t254.5 108.5h75v-269q-113 0 -145 -41q-16 -23 -27 -69h250q12 162 116.5 270.5t254.5 108.5h76v-269q-113 0 -146 -41q-20 -25 -28 -69h524v-1137h-272v895h-252v-895h-273v895h-252v-895h-272v895h-96zM1176 1247v269h272v-269h-272z " />
<glyph unicode="&#xfb04;" horiz-adv-x="1558" d="M31 895v242h96q12 162 116.5 270.5t254.5 108.5h75v-269q-113 0 -145 -41q-16 -23 -27 -69h250q12 162 116.5 270.5t254.5 108.5h76v-269q-113 0 -146 -41q-20 -25 -28 -69h252v379h272v-1516h-272v895h-252v-895h-273v895h-252v-895h-272v895h-96z" />
</font>
</defs>
</svg>
