<?xml version="1.0" standalone="no"?>
<!DOCTYPE svg PUBLIC "-//W3C//DTD SVG 1.1//EN" "http://www.w3.org/Graphics/SVG/1.1/DTD/svg11.dtd" >
<svg xmlns="http://www.w3.org/2000/svg">
<metadata>
This is a custom SVG webfont generated by Font Squirrel.
Copyright   : Font software Copyright 1993 1994 2001 Adobe Systems Incorporated Typeface designs Copyright 2005 International Typeface Corporation All rights reserved
Designer    : Herb Lubalin and Tom Carnase
Foundry URL : httpwwwitcfontscom
</metadata>
<defs>
<font id="ITCAvantGardeGothicProBook" horiz-adv-x="1134" >
<font-face units-per-em="2048" ascent="1516" descent="-532" />
<missing-glyph horiz-adv-x="567" />
<glyph unicode=" "  horiz-adv-x="567" />
<glyph unicode="&#x09;" horiz-adv-x="567" />
<glyph unicode="&#xa0;" horiz-adv-x="567" />
<glyph unicode="!" horiz-adv-x="604" d="M227 0v258h152v-258h-152zM227 395v1121h152v-1121h-152z" />
<glyph unicode="&#x22;" horiz-adv-x="632" d="M74 1516h166l-25 -607h-117zM393 1516h166l-24 -607h-117z" />
<glyph unicode="#" d="M68 422v137h219l53 395h-219v140h239l60 422h141l-59 -422h254l59 422h141l-59 -422h170v-138h-190l-56 -397h189v-137h-207l-60 -422h-141l60 422h-254l-60 -422h-141l59 422h-198zM428 559h252l55 397h-252z" />
<glyph unicode="$" d="M143 438v29h152q0 -131 74.5 -207t205.5 -76q123 0 195 74t72 199q0 127 -75 189.5t-212 96.5q-180 45 -273.5 127t-95.5 248v8q-2 139 83 238.5t225 124.5v172h151v-166q154 -20 241 -122.5t93 -258.5h-152q0 115 -69.5 181.5t-186.5 66.5q-106 0 -169.5 -63.5 t-63.5 -172.5q0 -61 19.5 -105t62.5 -71.5t81 -42t103 -30.5q182 -47 285.5 -145.5t103.5 -274.5q0 -154 -98 -268.5t-250 -129.5v-202h-151v202q-143 16 -247 126t-104 253z" />
<glyph unicode="%" horiz-adv-x="1587" d="M43 1171.5q0 151.5 109.5 259t261 107.5t261 -107.5t109.5 -259t-109.5 -259t-261 -107.5t-261 107.5t-109.5 259zM166 1171.5q0 -104.5 71.5 -178t176 -73.5t176.5 73.5t72 178t-72 178t-176.5 73.5t-176 -73.5t-71.5 -178zM283 0l868 1516h139l-868 -1516h-139z M801 340q0 152 109.5 259.5t261 107.5t261 -107.5t109.5 -259.5t-109.5 -259.5t-261 -107.5t-261 107.5t-109.5 259.5zM924 340q0 -104 71.5 -178t176 -74t176 74t71.5 178t-71.5 178t-176 74t-176 -74t-71.5 -178z" />
<glyph unicode="&#x26;" horiz-adv-x="1550" d="M115 438q0 295 350 451q-84 82 -127 152.5t-43 164.5q0 143 109.5 239.5t255 96.5t254 -104.5t108.5 -249.5q0 -119 -86 -210t-209 -134l287 -283l221 426h170l-281 -534l383 -373l-108 -105l-346 338q-82 -160 -191.5 -249t-269.5 -89q-195 0 -336 135t-141 328z M266 430q0 -125 93.5 -218t220.5 -93q88 0 160.5 49t111.5 105.5t86 148.5l-365 358q-127 -45 -217 -136t-90 -214zM446 1208q0 -111 172 -258q76 29 122 52.5t88 77t42 122.5q0 86 -62.5 141.5t-150.5 55.5q-84 0 -147.5 -54.5t-63.5 -136.5z" />
<glyph unicode="'" horiz-adv-x="405" d="M121 1516h166l-25 -607h-117z" />
<glyph unicode="(" horiz-adv-x="755" d="M96 565.5q0 235.5 99.5 455.5t275.5 376q131 113 256 153v-153q-213 -127 -346 -356.5t-133 -475.5q0 -250 132 -478t347 -359v-148q-125 41 -256 154q-176 156 -275.5 376t-99.5 455.5z" />
<glyph unicode=")" horiz-adv-x="755" d="M29 -272q215 131 347 359t132 478q0 246 -133 475.5t-346 356.5v153q125 -41 256 -153q176 -156 275 -376t99 -455.5t-99 -456t-275 -375.5q-131 -113 -256 -154v148z" />
<glyph unicode="*" horiz-adv-x="870" d="M119 1243l37 115l223 -78l-2 236h119l-4 -238l223 76l37 -113l-226 -70l140 -188l-97 -70l-137 193l-135 -191l-96 70l141 189z" />
<glyph unicode="+" horiz-adv-x="1241" d="M104 449v139h447v448h139v-448h447v-139h-447v-449h-139v449h-447z" />
<glyph unicode="," horiz-adv-x="567" d="M29 -137l180 395h151l-180 -395h-151z" />
<glyph unicode="-" horiz-adv-x="679" d="M61 508v137h557v-137h-557z" />
<glyph unicode="." horiz-adv-x="567" d="M209 0v258h151v-258h-151z" />
<glyph unicode="/" horiz-adv-x="894" d="M90 -205l574 1721h161l-579 -1721h-156z" />
<glyph unicode="0" d="M59 553v442q0 166 58 279q63 125 185 196.5t265.5 71.5t265 -71.5t185.5 -196.5q57 -113 57 -279v-442q0 -211 -76 -344q-68 -115 -181 -175.5t-250.5 -60.5t-251 60.5t-181.5 175.5q-76 133 -76 344zM211 575q0 -209 57 -303q98 -162 299 -161.5t299 161.5q57 94 58 303 v386q0 184 -66 288q-43 70 -125 113t-166 43t-166 -43t-125 -113q-66 -104 -65 -288v-386z" />
<glyph unicode="1" d="M276 1378v138h412v-1516h-151v1378h-261z" />
<glyph unicode="2" d="M82 0v137l532 512l52 49l59 58q12 12 50 54t52 66l36 61q22 38 30 74t8 72q0 133 -97 227.5t-231 94.5q-158 0 -242.5 -108.5t-84.5 -270.5h-152v4q0 360 295 475q92 37 193 37q147 0 261.5 -76.5t172.5 -212.5q37 -88 37 -172q0 -139 -72 -245.5t-207 -233.5l-487 -465 h757v-137h-962z" />
<glyph unicode="3" d="M70 475h151q10 -131 53 -203q96 -162 285 -161q147 0 236.5 99t89.5 249q0 115 -74 205t-184 118q-37 10 -176 15v133q8 0 25.5 -1t25.5 -1q121 0 201.5 61.5t80.5 175.5q0 104 -65.5 172t-169.5 68q-106 0 -166.5 -80t-60.5 -188h-152q4 174 108.5 289.5t274.5 115.5 q166 0 274.5 -111.5t108.5 -277.5q0 -162 -156 -285q117 -61 186.5 -167.5t69.5 -233.5q0 -207 -136 -350.5t-341 -143.5q-94 0 -180 35q-295 111 -309 467z" />
<glyph unicode="4" d="M29 276v138l735 1102h180v-1102h137v-138h-137v-276h-151v276h-764zM203 414h590v893h-5z" />
<glyph unicode="5" d="M53 477h152q16 -156 115.5 -261t250.5 -105q154 0 258.5 117.5t104.5 273.5q0 160 -101.5 277.5t-259.5 117.5q-182 0 -315 -172l-119 43l137 748h682v-138h-561l-75 -417q131 72 258 71q217 0 361 -155.5t144 -374.5q0 -217 -148.5 -373t-365.5 -156q-88 0 -176 33 q-293 104 -342 471z" />
<glyph unicode="6" d="M49 512q0 82 30 166t60.5 135t91.5 143l377 557h172l-350 -514l4 -2q70 33 141 33q219 0 364.5 -152.5t145.5 -373.5q0 -223 -147 -377t-371 -154q-229 0 -373.5 154t-144.5 385zM201 498q0 -158 104.5 -272.5t261.5 -114.5q160 0 263.5 114.5t103.5 276.5 q0 160 -103.5 275.5t-263 115.5t-263 -116.5t-103.5 -278.5z" />
<glyph unicode="7" d="M129 1378v138h877v-138l-621 -1378h-160l625 1378h-721z" />
<glyph unicode="8" d="M84 440q0 131 71.5 245t188.5 161q-82 53 -130 132t-48 171q0 168 116.5 280.5t284.5 112.5q170 0 286 -115.5t116 -283.5q0 -90 -50.5 -172t-130.5 -125q121 -57 192 -165t71 -241q0 -195 -142.5 -331t-339 -136t-341 136t-144.5 331zM236 446q0 -143 95 -239t240 -96 q135 0 231.5 97t96.5 232q0 137 -98.5 232.5t-235.5 95.5q-131 0 -230 -95.5t-99 -226.5zM317 1155q0 -100 76 -173t176 -73q102 0 175 72t73 174t-71.5 176t-174.5 74q-106 0 -180 -72t-74 -178z" />
<glyph unicode="9" d="M49 1010q0 223 147.5 376.5t370.5 153.5q229 0 373.5 -153.5t144.5 -385.5q0 -82 -29.5 -165.5t-60 -135t-92.5 -143.5l-377 -557h-172l351 514l-5 2q-63 -33 -141 -33q-219 0 -364.5 153t-145.5 374zM201 1012q0 -160 103.5 -275.5t263 -115.5t263 116.5t103.5 278.5 q0 158 -104.5 272.5t-262.5 114.5q-160 0 -263 -114.5t-103 -276.5z" />
<glyph unicode=":" horiz-adv-x="567" d="M209 0v258h151v-258h-151zM209 864v258h151v-258h-151z" />
<glyph unicode=";" horiz-adv-x="567" d="M29 -137l180 395h151l-180 -395h-151zM209 864v258h151v-258h-151z" />
<glyph unicode="&#x3c;" horiz-adv-x="1241" d="M94 455v127l1041 471v-140l-871 -395l871 -395v-139z" />
<glyph unicode="=" horiz-adv-x="1241" d="M104 242v139h1033v-139h-1033zM104 655v140h1033v-140h-1033z" />
<glyph unicode="&#x3e;" horiz-adv-x="1241" d="M106 -16v139l871 395l-871 395v140l1041 -471v-127z" />
<glyph unicode="?" horiz-adv-x="1210" d="M131 1040v39q0 193 143.5 327t337.5 134q197 0 331 -130t134 -325q0 -76 -27.5 -141t-69.5 -109l-91 -95l-91 -94q-42 -44 -73 -109.5t-35 -141.5h-151v8q0 100 39.5 185.5t97.5 142.5l114 111q56 53 96 116.5t40 133.5q0 127 -95.5 216t-224.5 89q-176 0 -276 -150 q-47 -72 -47 -207h-152zM539 0v258h151v-258h-151z" />
<glyph unicode="@" horiz-adv-x="1775" d="M133 741q0 352 228.5 576.5t580.5 224.5q307 0 505 -184t198 -490q0 -106 -27 -198q-37 -137 -128 -244t-216 -107q-72 0 -116 45.5t-48 118.5h-4q-100 -164 -283 -164q-147 0 -233 109t-86 260q0 180 111.5 321.5t287.5 141.5q199 0 254 -182h4l29 153h123l-86 -485 q-18 -117 -19 -119q0 -33 18.5 -58.5t51.5 -25.5q86 0 144.5 87t82.5 190q16 82 17 155q0 260 -167 410.5t-429 150.5q-291 0 -480.5 -190t-189.5 -481q0 -309 190.5 -488.5t501.5 -179.5q262 0 488 102l30 -104q-240 -113 -518 -113q-256 0 -453.5 108.5t-295.5 332.5 q-66 149 -66 327zM627 692q0 -113 56 -185.5t165 -72.5q129 0 198.5 117t69.5 256q0 94 -55 161.5t-148 67.5q-131 0 -208.5 -104.5t-77.5 -239.5z" />
<glyph unicode="A" horiz-adv-x="1515" d="M25 0l647 1516h170l651 -1516h-166l-219 510h-705l-221 -510h-157zM461 647h588l-291 696z" />
<glyph unicode="B" horiz-adv-x="1175" d="M152 0v1516h380q360 0 465 -248q31 -74 31 -156q0 -98 -41 -169t-125 -136q117 -47 184.5 -147.5t67.5 -225.5q0 -106 -45 -201.5t-129 -148.5q-84 -51 -167 -67.5t-204 -16.5h-417zM303 137h213q197 0 287 39q76 31 118 102.5t42 155.5t-49.5 153.5t-129.5 102.5 q-88 35 -295 35h-186v-588zM303 862h191q180 0 260 43q57 31 90 89.5t33 123.5q0 94 -64 166q-80 94 -307 94h-203v-516z" />
<glyph unicode="C" horiz-adv-x="1665" d="M88 756q0 332 229.5 558t561.5 226q172 0 327.5 -70.5t270.5 -199.5q68 -74 96 -144h-170q-86 129 -227.5 203t-298.5 74q-260 0 -448.5 -194.5t-188.5 -454.5q0 -256 191.5 -449.5t447.5 -193.5q315 0 530 286h170q-104 -195 -292.5 -309.5t-405.5 -114.5 q-328 0 -560.5 227.5t-232.5 555.5z" />
<glyph unicode="D" horiz-adv-x="1523" d="M152 0v1516h442q299 0 493 -125q160 -102 252.5 -273.5t92.5 -363.5q0 -188 -92.5 -357.5t-252.5 -271.5q-195 -125 -493 -125h-442zM303 137h252q156 0 270.5 24.5t216.5 98.5q113 82 175.5 218t62.5 282q0 150 -68.5 284t-189.5 218q-102 72 -221 94t-279 22h-219 v-1241z" />
<glyph unicode="E" horiz-adv-x="1097" d="M143 0v1516h830v-138h-678v-544h655v-138h-655v-559h678v-137h-830z" />
<glyph unicode="F" horiz-adv-x="993" d="M143 0v1516h766v-138h-614v-549h592v-137h-592v-692h-152z" />
<glyph unicode="G" horiz-adv-x="1785" d="M82 758q0 328 240.5 556t570.5 228q178 0 340 -72.5t278 -205.5q66 -74 99 -152h-176q-78 135 -227.5 214t-311.5 79q-270 0 -466 -189.5t-196 -459.5q0 -272 197 -458.5t471 -186.5q205 0 384 127t228 321h-845v137h1028q-25 -309 -257.5 -516t-543.5 -207 q-213 0 -400.5 103.5t-300 286t-112.5 395.5z" />
<glyph unicode="H" horiz-adv-x="1398" d="M156 0v1516h151v-668h785v668h151v-1516h-151v711h-785v-711h-151z" />
<glyph unicode="I" horiz-adv-x="462" d="M156 0v1516h151v-1516h-151z" />
<glyph unicode="J" horiz-adv-x="987" d="M12 360h150q8 -111 80.5 -180t183.5 -69q80 0 132 29.5t75.5 88t31 113.5t7.5 133v1041h151v-1035q0 -201 -39 -288q-45 -102 -144 -161t-216 -59q-172 0 -288 107.5t-124 279.5z" />
<glyph unicode="K" horiz-adv-x="1210" d="M166 0v1516h151v-871h5l694 871h194l-600 -740l600 -776h-190l-506 657l-197 -241v-416h-151z" />
<glyph unicode="L" horiz-adv-x="946" d="M168 0v1516h151v-1379h627v-137h-778z" />
<glyph unicode="M" horiz-adv-x="1882" d="M156 0v1516h233l551 -1291l553 1291h233v-1516h-151v1350h-4l-567 -1350h-130l-563 1350h-4v-1350h-151z" />
<glyph unicode="N" horiz-adv-x="1515" d="M154 0v1516h204l846 -1258h4v1258h152v-1516h-152l-899 1333h-4v-1333h-151z" />
<glyph unicode="O" horiz-adv-x="1779" d="M88 750q0 330 234.5 561t566.5 231q328 0 565.5 -229.5t237.5 -555t-237.5 -555t-565.5 -229.5q-322 0 -561.5 229t-239.5 548zM240 750q0 -262 193.5 -450.5t455.5 -188.5q266 0 458.5 189t192.5 455.5t-191.5 458t-459.5 191.5q-270 0 -459.5 -192.5t-189.5 -462.5z " />
<glyph unicode="P" horiz-adv-x="1212" d="M154 0v1516h421q262 0 392 -89q188 -129 188 -364.5t-188 -364.5q-129 -88 -392 -88h-270v-610h-151zM305 748h262q178 0 260 38q176 84 176.5 276.5t-176.5 276.5q-82 39 -260 39h-262v-630z" />
<glyph unicode="Q" horiz-adv-x="1783" d="M82 752q0 338 237.5 564t579.5 226q346 0 580.5 -226t234.5 -571q0 -319 -250 -552q96 -82 220 -82h6v-138q-111 0 -183.5 29t-154.5 102q-199 -131 -455 -131q-332 0 -573.5 225.5t-241.5 553.5zM233 743q0 -90 27 -172q156 51 320 52q231 0 402 -80t372 -252 q209 205 209 459q0 274 -193.5 464.5t-468.5 190.5q-279 0 -473.5 -191.5t-194.5 -470.5zM322 442q29 -57 88 -120q195 -211 491 -211q195 0 334 98q-168 129 -207 153q-205 123 -471 123q-135 0 -235 -43z" />
<glyph unicode="R" horiz-adv-x="1243" d="M143 0v1516h385q254 0 373 -58q127 -61 198.5 -176t71.5 -256q0 -190 -129 -319t-321 -142l428 -565h-191l-514 686q254 0 326 23q113 35 181.5 119.5t68.5 201.5q0 88 -45 169t-121 122q-106 57 -295 57h-264v-1378h-152z" />
<glyph unicode="S" horiz-adv-x="1019" d="M45 424h152q6 -141 90 -227t225 -86q127 0 216 87t89 214q0 137 -90 206.5t-248 116.5q-94 29 -154.5 54.5t-121 69.5t-89 112.5t-28.5 163.5q0 176 124 291.5t302 115.5q176 0 298 -117.5t122 -294.5h-152q0 111 -78.5 193t-189.5 82q-115 0 -194.5 -75t-79.5 -189 q0 -43 10 -77t35.5 -60.5t45 -44t64.5 -36t64.5 -25.5t74 -22.5t66.5 -19.5q371 -113 371 -438q0 -188 -134.5 -316.5t-322.5 -128.5q-203 0 -334 124t-133 327z" />
<glyph unicode="T" horiz-adv-x="872" d="M12 1378v138h846v-138h-346v-1378h-152v1378h-348z" />
<glyph unicode="U" horiz-adv-x="1341" d="M154 571v945h151v-945q0 -182 51 -274q102 -186 313.5 -186t313.5 186q51 92 51 274v945h152v-945q0 -193 -58 -315q-63 -137 -184 -210t-274.5 -73t-274.5 73t-184 210q-57 122 -57 315z" />
<glyph unicode="V" horiz-adv-x="1437" d="M16 1516h168l535 -1328l536 1328h164l-628 -1516h-150z" />
<glyph unicode="W" horiz-adv-x="1966" d="M23 1516h155l371 -1321h4l360 1321h142l362 -1319h4l371 1319h154l-435 -1516h-192l-334 1243h-4l-332 -1243h-194z" />
<glyph unicode="X" horiz-adv-x="1247" d="M16 0l514 774l-485 742h178l404 -607l399 607h176l-487 -742l518 -774h-180l-426 647l-432 -647h-179z" />
<glyph unicode="Y" horiz-adv-x="1212" d="M2 1516h168l432 -850l445 850h165l-532 -1010v-506h-152v506z" />
<glyph unicode="Z" horiz-adv-x="983" d="M25 0v137l745 1241h-723v138h893v-138l-743 -1241h766v-137h-938z" />
<glyph unicode="[" horiz-adv-x="718" d="M272 199v774q0 342 269 504q76 47 149 65v-153q-266 -115 -266 -416v-748q0 -168 58.5 -269t207.5 -169v-154q-199 55 -308.5 206t-109.5 360z" />
<glyph unicode="\" horiz-adv-x="1239" d="M242 1516h161l574 -1721h-156z" />
<glyph unicode="]" horiz-adv-x="718" d="M29 -213q150 68 208 169t58 269v748q0 301 -266 416v153q74 -18 149 -65q268 -162 268 -504v-774q0 -209 -109.5 -359.5t-307.5 -206.5v154z" />
<glyph unicode="^" horiz-adv-x="1241" d="M109 629l446 887h131l447 -887h-144l-371 737l-364 -737h-145z" />
<glyph unicode="_" horiz-adv-x="1024" d="M0 -154h1024v-102h-1024v102z" />
<glyph unicode="`" horiz-adv-x="774" d="M141 1446l66 123l407 -223l-67 -119z" />
<glyph unicode="a" horiz-adv-x="1398" d="M86 563q0 250 176 418t426 168q135 0 251 -57.5t185 -167.5h4v196h144v-1120h-144v197h-4q-72 -109 -187.5 -166.5t-248.5 -57.5q-254 0 -428 169t-174 421zM229 557q0 -197 131.5 -326t327.5 -129q188 0 318.5 134.5t130.5 323t-130 324.5t-319 136q-199 0 -329 -132 t-130 -331z" />
<glyph unicode="b" horiz-adv-x="1396" d="M139 0v1516h144v-592h4q76 106 189.5 165.5t246.5 59.5q250 0 426 -168t176 -418q0 -252 -174 -421t-428 -169q-131 0 -247 58.5t-189 165.5h-4v-197h-144zM274 559.5q0 -188.5 130.5 -323t318.5 -134.5q197 0 328 129t131 326q0 199 -130 331t-329 132 q-188 0 -318.5 -136t-130.5 -324.5z" />
<glyph unicode="c" horiz-adv-x="1325" d="M84 559q0 246 177 418t425 172q184 0 337 -98.5t220 -268.5h-158q-59 111 -164.5 174.5t-230.5 63.5q-193 0 -328 -132t-135 -325q0 -195 134.5 -328t328.5 -133q127 0 232.5 58.5t162.5 169.5h158q-182 -356 -557 -357q-250 0 -426 169t-176 417z" />
<glyph unicode="d" horiz-adv-x="1402" d="M80 563q0 250 176 418t426 168q131 0 248 -57.5t188 -163.5h4v588h144v-1516h-144v197h-4q-72 -106 -189.5 -165t-246.5 -59q-254 0 -428 169t-174 421zM223 557q0 -197 131 -326t328 -129q188 0 318 134.5t130 323t-130 324.5t-318 136q-199 0 -329 -132t-130 -331z" />
<glyph unicode="e" horiz-adv-x="1331" d="M78 559q0 242 171 416t410 174q244 0 416 -178t172 -422q0 -8 -1 -20.5t-1 -20.5h-1020q8 -164 138.5 -285t295.5 -121q133 0 245 72t157 193h151q-61 -176 -212.5 -285t-337.5 -109q-242 0 -413 172t-171 414zM225 637h875q-29 166 -150 274.5t-288 108.5 q-166 0 -288 -108.5t-149 -274.5z" />
<glyph unicode="f" horiz-adv-x="643" d="M39 991v129h174q4 113 18 168q68 250 412 254v-133q-154 0 -220.5 -65.5t-66.5 -215.5v-8h287v-129h-287v-991h-143v991h-174z" />
<glyph unicode="g" horiz-adv-x="1378" d="M76 555q0 246 171 420t415 174q133 0 246.5 -59.5t185.5 -169.5h4v200h143v-944q0 -133 -19.5 -229.5t-82.5 -179.5q-76 -98 -196 -152.5t-249 -54.5q-207 0 -361.5 107.5t-211.5 303.5h151q53 -135 164 -208.5t256 -73.5q186 0 296 114.5t110 302.5v99h-4 q-59 -113 -178 -172.5t-254 -59.5q-244 0 -415 169t-171 413zM219 559q0 -186 128 -321.5t315 -135.5q184 0 314 135.5t130 321.5t-129 323.5t-315.5 137.5t-314.5 -136.5t-128 -324.5z" />
<glyph unicode="h" horiz-adv-x="1249" d="M127 0v1516h143v-539h4q53 84 146.5 128t197.5 44q236 0 365 -146.5t129 -386.5v-616h-143v616q0 207 -107 308q-102 96 -243.5 96t-243.5 -96q-104 -98 -105 -297v-627h-143z" />
<glyph unicode="i" horiz-adv-x="409" d="M133 0v1120h143v-1120h-143zM133 1257v259h143v-259h-143z" />
<glyph unicode="j" horiz-adv-x="415" d="M-90 -252q74 2 121 28.5t69.5 77t29.5 101.5t7 123v1042h144v-1067q0 -123 -24 -207t-99 -149q-100 -88 -248 -90v141zM137 1257v259h144v-259h-144z" />
<glyph unicode="k" horiz-adv-x="1028" d="M143 0v1516h144v-1080h4l522 684h184l-442 -565l465 -555h-184l-369 442l-180 -229v-213h-144z" />
<glyph unicode="l" horiz-adv-x="409" d="M133 0v1516h143v-1516h-143z" />
<glyph unicode="m" horiz-adv-x="1921" d="M135 0v1120h144v-129q100 158 305 158q121 0 220 -55.5t157 -159.5q135 215 376 215q209 0 329 -135t120 -348v-666h-144v649q0 162 -74.5 266.5t-230 104.5t-230.5 -104.5t-75 -266.5v-649h-143v649q0 162 -75 266.5t-230.5 104.5t-230 -104.5t-74.5 -266.5v-649h-144z " />
<glyph unicode="n" horiz-adv-x="1249" d="M133 0v1120h143v-143h5q53 84 146 128t198 44q236 0 364.5 -146.5t128.5 -386.5v-616h-143v616q0 207 -107 308q-102 96 -243.5 96t-243.5 -96q-104 -98 -105 -297v-627h-143z" />
<glyph unicode="o" horiz-adv-x="1341" d="M86 553q0 244 170 420t414 176q240 0 413.5 -174t173.5 -414q0 -242 -173 -415t-414 -173q-238 0 -411 172t-173 408zM229 555q0 -184 129 -318.5t314 -134.5q190 0 316 136.5t126 328.5q0 184 -130 318.5t-312 134.5q-186 0 -314.5 -138.5t-128.5 -326.5z" />
<glyph unicode="p" horiz-adv-x="1396" d="M131 -393v1513h143v-196h5q76 109 189.5 167t246.5 58q250 0 426 -168t176 -418q0 -252 -174 -421t-428 -169q-131 0 -247 58.5t-189 165.5h-5v-590h-143zM266 559.5q0 -188.5 130 -323t319 -134.5q197 0 328 129t131 326q0 199 -130.5 331t-328.5 132 q-188 0 -318.5 -136t-130.5 -324.5z" />
<glyph unicode="q" horiz-adv-x="1396" d="M76 563q0 250 176 418t426 168q133 0 249.5 -58.5t186.5 -166.5h4v196h144v-1513h-144v590h-4q-70 -109 -186.5 -166.5t-249.5 -57.5q-254 0 -428 169t-174 421zM219 557q0 -197 131 -326t328 -129q188 0 318 134.5t130 323t-130 324.5t-318 136q-199 0 -329 -132 t-130 -331z" />
<glyph unicode="r" horiz-adv-x="616" d="M133 0v1120h143v-162h5q43 100 118.5 141.5t196.5 49.5v-152q-150 -12 -235 -102t-85 -240v-655h-143z" />
<glyph unicode="s" horiz-adv-x="794" d="M49 319v13h144q2 -102 52 -166t148 -64q96 0 152.5 52.5t56.5 148.5q0 82 -53 132t-130 78l-154 58.5t-130 96t-53 170.5q0 137 91 224t228 87q129 0 217.5 -88t88.5 -217h-144q-4 76 -49 126t-119 50q-72 0 -121 -48t-49 -120q0 -70 53.5 -113t130 -69.5t153.5 -59 t130 -106.5t53 -189q0 -160 -96 -251t-256 -91q-150 0 -247 97t-97 249z" />
<glyph unicode="t" horiz-adv-x="694" d="M29 991v129h235v396h144v-396h268v-129h-268v-991h-144v991h-235z" />
<glyph unicode="u" horiz-adv-x="1245" d="M127 502v618h143v-616q0 -401 340 -402q141 0 238 91q68 66 92.5 145.5t24.5 189.5v592h143v-1120h-135v174h-4q-47 -98 -144.5 -149.5t-214.5 -51.5q-252 0 -385 168q-98 123 -98 361z" />
<glyph unicode="v" d="M14 1120h154l395 -942l402 942h153l-473 -1120h-158z" />
<glyph unicode="w" horiz-adv-x="1701" d="M27 1120h149l352 -938h4l256 803h125l258 -803h5l356 938h147l-428 -1120h-161l-238 745h-4l-234 -745h-161z" />
<glyph unicode="x" horiz-adv-x="983" d="M25 0l383 569l-383 551h172l295 -432l292 432h174l-383 -551l383 -569h-170l-296 449l-297 -449h-170z" />
<glyph unicode="y" horiz-adv-x="1097" d="M31 1120h151l357 -893l381 893h151l-649 -1513h-150l195 430z" />
<glyph unicode="z" horiz-adv-x="870" d="M20 0v125l621 866h-600v129h772v-129l-614 -862h651v-129h-830z" />
<glyph unicode="{" horiz-adv-x="718" d="M143 498v131q84 4 133.5 79.5t49.5 165.5v373q0 111 56 190t161 79h135v-123h-103q-98 0 -98 -176v-375q0 -92 -47 -172t-131 -103v-6q37 -6 72 -31q106 -74 106 -243v-375q0 -176 98 -176h103v-123h-135q-104 0 -160.5 79t-56.5 189v373q0 92 -47.5 166t-135.5 78z" />
<glyph unicode="|" horiz-adv-x="1376" d="M612 -455v2048h152v-2048h-152z" />
<glyph unicode="}" horiz-adv-x="718" d="M41 -264h102q98 0 99 176v375q0 170 106 243q35 25 72 31v6q-84 23 -131 103t-47 172v375q0 176 -99 176h-102v123h135q104 0 160.5 -79t56.5 -190v-373q0 -90 49.5 -165.5t132.5 -79.5v-131q-88 -4 -135 -78t-47 -166v-373q0 -111 -56 -189.5t-161 -78.5h-135v123z" />
<glyph unicode="~" horiz-adv-x="1241" d="M147 469q90 176 256 176q86 0 242 -73.5t195 -73.5q14 0 26.5 3t25.5 10l22 12q9 5 22.5 19.5t19 19.5t18.5 24l16 22l18 25l12 20l74 -102q-41 -57 -70 -89t-79 -59.5t-107 -27.5q-82 0 -221.5 73.5t-223.5 73.5q-100 0 -172 -155z" />
<glyph unicode="&#xa1;" horiz-adv-x="604" d="M225 -393v1120h152v-1120h-152zM225 864v258h152v-258h-152z" />
<glyph unicode="&#xa2;" d="M98 784.5q0 178.5 115 308.5t291 156v199h151v-197q133 -16 237.5 -97t151.5 -206h-165q-96 172 -295 172q-137 0 -235.5 -99t-98.5 -236.5t98 -236.5t236 -99q186 0 278 147h170q-49 -115 -150.5 -188.5t-226.5 -90.5v-190h-151v192q-176 27 -291 157t-115 308.5z" />
<glyph unicode="&#xa3;" d="M8 715v129h121q-45 106 -45 200q0 211 136 354.5t345 143.5q190 0 326.5 -123t159.5 -311h-148q-23 133 -115 219t-223 86q-152 0 -240.5 -107.5t-88.5 -261.5q0 -111 59 -200h584v-129h-461v-4q168 -147 168 -342q0 -86 -62 -240h88q164 0 265.5 78t101.5 237 q0 27 -18 105h151q18 -57 18 -115q0 -90 -34 -172q-111 -262 -478 -262h-559v129h303q72 111 72 238q0 59 -21.5 111t-43 79t-73.5 82l-71 76h-217z" />
<glyph unicode="&#xa4;" horiz-adv-x="1179" d="M53 1151l84 84l166 -166q127 102 287 102q158 0 284 -100l164 164l84 -84l-161 -164q102 -127 102 -287q0 -158 -105 -284l164 -162l-84 -84l-159 160q-133 -100 -289 -101q-160 0 -289 101l-162 -160l-84 84l164 162q-102 129 -102 284q0 166 102 287zM262 698 q0 -131 98.5 -226t229.5 -95q133 0 229 96t96 227q0 133 -96 229.5t-229 96.5q-135 0 -231.5 -96.5t-96.5 -231.5z" />
<glyph unicode="&#xa5;" d="M8 1516h164l397 -666l394 666h163l-370 -621h311v-129h-389l-35 -53v-119h424v-131h-424v-463h-151v465h-424v129h424v119l-35 53h-389v129h311z" />
<glyph unicode="&#xa6;" horiz-adv-x="1376" d="M612 -301v717h152v-717h-152zM612 723v717h152v-717h-152z" />
<glyph unicode="&#xa7;" horiz-adv-x="1259" d="M174 711q0 92 47 160.5t135 134.5q-82 86 -82 206q0 147 107.5 238.5t257 91.5t249 -78t99.5 -223h-151q0 80 -56.5 122t-140.5 42q-94 0 -153.5 -53.5t-59.5 -145.5q0 -113 117 -172l301 -149q119 -59 179 -126t60 -184q0 -76 -49 -154.5t-116 -121.5q106 -90 106 -244 q0 -150 -116.5 -247t-268.5 -97q-182 0 -296 119t-120 301h152q8 -127 74.5 -205t189.5 -78q94 0 163.5 57.5t69.5 149.5q0 59 -27.5 103.5t-60 67t-96.5 55.5l-317 163q-197 103 -197 267zM326 719q0 -104 106 -156l385 -192q51 31 83 87t32 115q0 113 -127 177l-359 178 q-55 -33 -87.5 -89.5t-32.5 -119.5z" />
<glyph unicode="&#xa8;" horiz-adv-x="755" d="M150 1268v258h151v-258h-151zM453 1268v258h151v-258h-151z" />
<glyph unicode="&#xa9;" horiz-adv-x="1529" d="M-18 757.5q0 325.5 229 554t555 228.5q324 0 552 -229.5t228 -553t-229.5 -553t-550.5 -229.5q-326 0 -555 228.5t-229 554zM94 758q0 -279 194.5 -478.5t475 -199.5t475.5 199.5t195 478t-195 478.5t-475.5 200t-475 -198.5t-194.5 -479.5zM336 760q0 201 119.5 334 t320.5 133q145 0 261 -86t132 -226h-112q-45 207 -281 207q-158 0 -242.5 -101t-84.5 -261t84.5 -261.5t242.5 -101.5q236 0 281 207h112q-16 -139 -131.5 -225t-261.5 -86q-201 0 -320.5 133t-119.5 334z" />
<glyph unicode="&#xaa;" horiz-adv-x="888" d="M61 1189.5q0 147.5 107.5 250t255.5 102.5q172 0 246 -123h4v107h123v-676h-123v106h-4q-72 -123 -246 -122q-147 0 -255 104t-108 251.5zM184 1186q0 -98 73 -168t173 -70q106 0 178 67.5t72 174.5q0 100 -74 168.5t-176 68.5t-174 -70.5t-72 -170.5z" />
<glyph unicode="&#xab;" horiz-adv-x="870" d="M82 578l231 407l121 -63l-192 -344l192 -345l-121 -67zM438 578l232 407l121 -63l-195 -344l195 -345l-121 -67z" />
<glyph unicode="&#xac;" horiz-adv-x="1241" d="M104 655v140h1033v-572h-140v432h-893z" />
<glyph unicode="&#xad;" horiz-adv-x="679" d="M61 508v137h557v-137h-557z" />
<glyph unicode="&#xae;" horiz-adv-x="1529" d="M-18 757.5q0 325.5 229 554t555 228.5q324 0 552 -229.5t228 -553t-229.5 -553t-550.5 -229.5q-326 0 -555 228.5t-229 554zM94 758q0 -279 194.5 -478.5t475 -199.5t475.5 199.5t195 478t-195 478.5t-475.5 200t-475 -198.5t-194.5 -479.5zM430 303v895h385 q133 0 220 -58.5t87 -185.5q0 -176 -166 -217v-4q86 -25 115 -75t35 -148q0 -8 1 -38t2 -46t3 -42t8 -46.5t15 -34.5h-113q-20 35 -27 166q-2 129 -49 171t-180 42h-223v-379h-113zM543 784h237q229 0 230 164q0 145 -222 146h-245v-310z" />
<glyph unicode="&#xaf;" horiz-adv-x="993" d="M150 1288v137h692v-137h-692z" />
<glyph unicode="&#xb0;" horiz-adv-x="819" d="M115 1157q0 123 86 209t208.5 86t209 -86t86.5 -209t-86.5 -209t-209 -86t-208.5 86t-86 209zM217 1157q0 -82 55.5 -137t137.5 -55t137 55t55 137t-55 137.5t-137 55.5t-137.5 -55.5t-55.5 -137.5z" />
<glyph unicode="&#xb1;" horiz-adv-x="1241" d="M104 -49v139h1033v-139h-1033zM104 557v139h447v365h139v-365h447v-139h-447v-364h-139v364h-447z" />
<glyph unicode="&#xb2;" horiz-adv-x="720" d="M45 862v101l324 301q4 4 26.5 23.5t28.5 25.5l26 26q19 20 27 30.5l21.5 29t19.5 34t11.5 34t5.5 36.5q0 72 -53.5 122t-125.5 50q-180 0 -180 -219h-123v10q0 143 83 231.5t224 88.5q121 0 209 -82t88 -203q0 -61 -26.5 -116.5t-55 -86t-86.5 -84.5l-264 -241h430v-111 h-610z" />
<glyph unicode="&#xb3;" horiz-adv-x="712" d="M49 1167h123q0 -92 51 -150.5t137 -58.5q82 0 131.5 52.5t49.5 134.5q0 59 -42 106t-102 62q-37 8 -116 8v111h49q61 0 106 29.5t45 88.5q0 61 -36.5 93t-90.5 32q-59 0 -90 -46t-31 -107h-122q2 115 68.5 189.5t178.5 74.5q106 0 176 -68.5t70 -171.5q0 -96 -84 -164 q143 -88 144 -235q0 -127 -88.5 -213t-215.5 -86q-141 0 -224 88t-87 231z" />
<glyph unicode="&#xb4;" horiz-adv-x="768" d="M160 1346l407 223l66 -123l-406 -219z" />
<glyph unicode="&#xb5;" horiz-adv-x="1245" d="M131 -393v1513h143v-616q0 -401 340 -402q145 0 238 91q68 66 92.5 144.5t24.5 190.5v592h143v-1120h-135v174h-4q-47 -98 -144.5 -149.5t-214.5 -51.5q-236 0 -340 142v-508h-143z" />
<glyph unicode="&#xb6;" horiz-adv-x="1155" d="M45 1110q0 104 47 195.5t133 144.5q102 66 318 66h585v-115h-131v-1626h-127v1626h-245v-1626h-127v938h-35q-180 0 -299 109.5t-119 287.5z" />
<glyph unicode="&#xb7;" horiz-adv-x="567" d="M209 389v258h151v-258h-151z" />
<glyph unicode="&#xb8;" horiz-adv-x="663" d="M162 -297l86 4q6 -37 31.5 -61.5t62.5 -24.5q45 0 69.5 31t24.5 76q0 96 -98 96q-49 0 -82 -39l-74 43l94 178l86 -6l-57 -115q31 8 68 9q68 0 107.5 -52.5t39.5 -124.5q0 -78 -54 -125t-134 -47q-70 0 -115 44t-55 114z" />
<glyph unicode="&#xb9;" horiz-adv-x="438" d="M29 1661v111h276v-910h-123v799h-153z" />
<glyph unicode="&#xba;" horiz-adv-x="827" d="M61 1182q0 150 102.5 255t250.5 105q143 0 247.5 -103.5t104.5 -248.5q0 -147 -102.5 -251.5t-249.5 -104.5q-143 0 -248 102.5t-105 245.5zM184 1186q0 -98 66.5 -168t165.5 -70q100 0 163.5 69.5t63.5 172.5q0 96 -65.5 166.5t-161.5 70.5q-100 0 -166 -70.5 t-66 -170.5z" />
<glyph unicode="&#xbb;" horiz-adv-x="870" d="M80 233l192 345l-192 344l119 63l233 -407l-233 -412zM436 233l193 345l-193 344l119 63l233 -407l-233 -412z" />
<glyph unicode="&#xbc;" horiz-adv-x="1300" d="M29 1405v111h276v-910h-123v799h-153zM147 0l682 1516h123l-682 -1516h-123zM569 160v100l449 649h133v-639h84v-110h-84v-160h-121v160h-461zM721 270h309v455h-4z" />
<glyph unicode="&#xbd;" horiz-adv-x="1400" d="M29 1405v111h276v-910h-123v799h-153zM147 0l682 1516h123l-682 -1516h-123zM725 0v100l324 301q4 4 26.5 23.5t28.5 26.5l25 26q19 20 27.5 30.5t22 29t19.5 34t11 34t5 36.5q0 72 -53 122t-125 50q-180 0 -180 -219h-123v10q0 143 83 231.5t224 88.5q121 0 209 -82 t88 -203q0 -61 -26.5 -116.5t-55 -86t-86.5 -84.5l-264 -241h430v-111h-610z" />
<glyph unicode="&#xbe;" horiz-adv-x="1605" d="M49 911h123q0 -92 51 -150.5t137 -58.5q82 0 131.5 52.5t49.5 134.5q0 59 -42 106t-102 62q-37 8 -116 8v111h49q61 0 106 29.5t45 88.5q0 61 -36.5 93t-90.5 32q-59 0 -90 -46t-31 -107h-122q2 115 68.5 189.5t178.5 74.5q106 0 176 -68.5t70 -171.5q0 -96 -84 -164 q143 -88 144 -235q0 -127 -88.5 -213t-215.5 -86q-141 0 -224 88t-87 231zM453 0l682 1516h122l-682 -1516h-122zM874 160v100l449 649h133v-639h84v-110h-84v-160h-121v160h-461zM1026 270h309v455h-4z" />
<glyph unicode="&#xbf;" horiz-adv-x="1210" d="M133 35q0 90 38 163.5t93 128.5l112 107q56 53 98 128t46 165h152v-8q0 -100 -40 -185t-97 -144l-114 -110q-56 -52 -96 -116t-40 -133q0 -127 96 -217t223 -90q178 0 277 149q47 74 47 207h151v-39q0 -193 -143 -327t-338 -134q-197 0 -331 130t-134 325zM520 864v258 h152v-258h-152z" />
<glyph unicode="&#xc0;" horiz-adv-x="1515" d="M25 0l647 1516h170l651 -1516h-166l-219 510h-705l-221 -510h-157zM461 647h588l-291 696zM512 1821l66 123l407 -224l-67 -118z" />
<glyph unicode="&#xc1;" horiz-adv-x="1515" d="M25 0l647 1516h170l651 -1516h-166l-219 510h-705l-221 -510h-157zM461 647h588l-291 696zM535 1720l407 224l66 -123l-406 -219z" />
<glyph unicode="&#xc2;" horiz-adv-x="1515" d="M25 0l647 1516h170l651 -1516h-166l-219 510h-705l-221 -510h-157zM395 1642l297 256h135l293 -256h-182l-176 150l-180 -150h-187zM461 647h588l-291 696z" />
<glyph unicode="&#xc3;" horiz-adv-x="1515" d="M25 0l647 1516h170l651 -1516h-166l-219 510h-705l-221 -510h-157zM406 1772q92 86 212 86q61 0 153.5 -42t137.5 -42q41 0 129 53l74 -101q-109 -80 -201 -79q-66 0 -160 42t-137 42q-72 0 -137 -62zM461 647h588l-291 696z" />
<glyph unicode="&#xc4;" horiz-adv-x="1515" d="M25 0l647 1516h170l651 -1516h-166l-219 510h-705l-221 -510h-157zM461 647h588l-291 696zM530 1642v259h152v-259h-152zM834 1642v259h151v-259h-151z" />
<glyph unicode="&#xc5;" horiz-adv-x="1515" d="M25 0l647 1516h170l651 -1516h-166l-219 510h-705l-221 -510h-157zM461 647h588l-291 696zM545 1743q0 86 62.5 149.5t148.5 63.5q88 0 150.5 -62.5t62.5 -150.5t-62.5 -149.5t-150.5 -61.5q-86 0 -148.5 62.5t-62.5 148.5zM651 1743q0 -43 31 -74t74 -31t74.5 31 t31.5 74q0 45 -30.5 75.5t-75.5 30.5q-43 0 -74 -31.5t-31 -74.5z" />
<glyph unicode="&#xc6;" horiz-adv-x="2031" d="M-41 0l1055 1516h844v-138h-650v-544h627v-138h-627v-559h650v-137h-801v512h-559l-357 -512h-182zM594 649h463v672h-4z" />
<glyph unicode="&#xc7;" horiz-adv-x="1665" d="M88 756q0 332 229.5 558t561.5 226q172 0 327.5 -70.5t270.5 -199.5q68 -74 96 -144h-170q-86 129 -227.5 203t-298.5 74q-260 0 -448.5 -194.5t-188.5 -454.5q0 -256 191.5 -449.5t447.5 -193.5q315 0 530 286h170q-104 -195 -292.5 -309.5t-405.5 -114.5q-4 0 -16.5 1 t-16.5 1l-43 -90q31 8 67 9q68 0 108 -52.5t40 -124.5q0 -78 -54.5 -125t-134.5 -47q-70 0 -114.5 44t-54.5 114l86 4q6 -37 31.5 -61.5t62.5 -24.5q45 0 69.5 31t24.5 76q0 96 -98 96q-49 0 -82 -39l-74 43l82 156q-289 41 -482.5 258t-193.5 514z" />
<glyph unicode="&#xc8;" horiz-adv-x="1097" d="M143 0v1516h830v-138h-678v-544h655v-138h-655v-559h678v-137h-830zM303 1821l66 123l407 -224l-67 -118z" />
<glyph unicode="&#xc9;" horiz-adv-x="1097" d="M143 0v1516h830v-138h-678v-544h655v-138h-655v-559h678v-137h-830zM326 1720l407 224l66 -123l-406 -219z" />
<glyph unicode="&#xca;" horiz-adv-x="1097" d="M143 0v1516h830v-138h-678v-544h655v-138h-655v-559h678v-137h-830zM186 1642l297 256h135l293 -256h-182l-176 150l-180 -150h-187z" />
<glyph unicode="&#xcb;" horiz-adv-x="1097" d="M143 0v1516h830v-138h-678v-544h655v-138h-655v-559h678v-137h-830zM322 1642v259h151v-259h-151zM625 1642v259h151v-259h-151z" />
<glyph unicode="&#xcc;" horiz-adv-x="462" d="M-96 1821l65 123l408 -224l-68 -118zM156 0v1516h151v-1516h-151z" />
<glyph unicode="&#xcd;" horiz-adv-x="462" d="M88 1720l408 224l65 -123l-405 -219zM156 0v1516h151v-1516h-151z" />
<glyph unicode="&#xce;" horiz-adv-x="462" d="M-131 1642l297 256h135l293 -256h-182l-176 150l-181 -150h-186zM156 0v1516h151v-1516h-151z" />
<glyph unicode="&#xcf;" horiz-adv-x="462" d="M4 1642v259h152v-259h-152zM156 0v1516h151v-1516h-151zM307 1642v259h152v-259h-152z" />
<glyph unicode="&#xd0;" horiz-adv-x="1658" d="M123 711v137h151v668h435q274 0 481 -114t305 -353q59 -147 59 -295q0 -141 -57 -287q-188 -467 -780 -467h-443v711h-151zM426 137h252q156 0 270.5 24.5t216.5 98.5q113 82 175.5 218t62.5 282q0 150 -68.5 284t-189.5 218q-102 72 -221 94t-279 22h-219v-530h430v-137 h-430v-574z" />
<glyph unicode="&#xd1;" horiz-adv-x="1515" d="M154 0v1516h204l846 -1258h4v1258h152v-1516h-152l-899 1333h-4v-1333h-151zM406 1772q92 86 212 86q61 0 153.5 -42t137.5 -42q41 0 129 53l74 -101q-109 -80 -201 -79q-66 0 -160 42t-137 42q-72 0 -137 -62z" />
<glyph unicode="&#xd2;" horiz-adv-x="1779" d="M88 750q0 330 234.5 561t566.5 231q328 0 565.5 -229.5t237.5 -555t-237.5 -555t-565.5 -229.5q-322 0 -561.5 229t-239.5 548zM240 750q0 -262 193.5 -450.5t455.5 -188.5q266 0 458.5 189t192.5 455.5t-191.5 458t-459.5 191.5q-270 0 -459.5 -192.5t-189.5 -462.5z M645 1821l66 123l407 -224l-67 -118z" />
<glyph unicode="&#xd3;" horiz-adv-x="1779" d="M88 750q0 330 234.5 561t566.5 231q328 0 565.5 -229.5t237.5 -555t-237.5 -555t-565.5 -229.5q-322 0 -561.5 229t-239.5 548zM240 750q0 -262 193.5 -450.5t455.5 -188.5q266 0 458.5 189t192.5 455.5t-191.5 458t-459.5 191.5q-270 0 -459.5 -192.5t-189.5 -462.5z M748 1720l407 224l66 -123l-406 -219z" />
<glyph unicode="&#xd4;" horiz-adv-x="1779" d="M88 750q0 330 234.5 561t566.5 231q328 0 565.5 -229.5t237.5 -555t-237.5 -555t-565.5 -229.5q-322 0 -561.5 229t-239.5 548zM240 750q0 -262 193.5 -450.5t455.5 -188.5q266 0 458.5 189t192.5 455.5t-191.5 458t-459.5 191.5q-270 0 -459.5 -192.5t-189.5 -462.5z M528 1642l297 256h136l292 -256h-182l-176 150l-180 -150h-187z" />
<glyph unicode="&#xd5;" horiz-adv-x="1779" d="M88 750q0 330 234.5 561t566.5 231q328 0 565.5 -229.5t237.5 -555t-237.5 -555t-565.5 -229.5q-322 0 -561.5 229t-239.5 548zM240 750q0 -262 193.5 -450.5t455.5 -188.5q266 0 458.5 189t192.5 455.5t-191.5 458t-459.5 191.5q-270 0 -459.5 -192.5t-189.5 -462.5z M537 1772q92 86 213 86q61 0 153 -42t137 -42q41 0 129 53l74 -101q-109 -80 -201 -79q-66 0 -160 42t-137 42q-72 0 -137 -62z" />
<glyph unicode="&#xd6;" horiz-adv-x="1779" d="M88 750q0 330 234.5 561t566.5 231q328 0 565.5 -229.5t237.5 -555t-237.5 -555t-565.5 -229.5q-322 0 -561.5 229t-239.5 548zM240 750q0 -262 193.5 -450.5t455.5 -188.5q266 0 458.5 189t192.5 455.5t-191.5 458t-459.5 191.5q-270 0 -459.5 -192.5t-189.5 -462.5z M662 1642v259h151v-259h-151zM965 1642v259h151v-259h-151z" />
<glyph unicode="&#xd7;" horiz-adv-x="1241" d="M152 147l372 373l-370 369l98 98l371 -369l368 369l99 -98l-369 -369l371 -373l-99 -98l-370 373l-373 -373z" />
<glyph unicode="&#xd8;" horiz-adv-x="1777" d="M88 758q0 326 237.5 555t563.5 229q221 0 418 -117l188 252l113 -82l-189 -252q272 -240 273 -585q0 -326 -237.5 -555.5t-565.5 -229.5q-219 0 -412 115l-192 -258l-113 82l190 258q-129 115 -201.5 267.5t-72.5 320.5zM240 756q0 -281 209 -471l772 1028 q-156 92 -332 92q-266 0 -457.5 -191.5t-191.5 -457.5zM561 201q158 -90 330 -90q264 0 456.5 190.5t192.5 454.5q0 272 -207 473z" />
<glyph unicode="&#xd9;" horiz-adv-x="1341" d="M154 571v945h151v-945q0 -182 51 -274q102 -186 313.5 -186t313.5 186q51 92 51 274v945h152v-945q0 -193 -58 -315q-63 -137 -184 -210t-274.5 -73t-274.5 73t-184 210q-57 122 -57 315zM385 1821l66 123l407 -224l-67 -118z" />
<glyph unicode="&#xda;" horiz-adv-x="1341" d="M154 571v945h151v-945q0 -182 51 -274q102 -186 313.5 -186t313.5 186q51 92 51 274v945h152v-945q0 -193 -58 -315q-63 -137 -184 -210t-274.5 -73t-274.5 73t-184 210q-57 122 -57 315zM487 1720l408 224l66 -123l-406 -219z" />
<glyph unicode="&#xdb;" horiz-adv-x="1341" d="M154 571v945h151v-945q0 -182 51 -274q102 -186 313.5 -186t313.5 186q51 92 51 274v945h152v-945q0 -193 -58 -315q-63 -137 -184 -210t-274.5 -73t-274.5 73t-184 210q-57 122 -57 315zM309 1642l297 256h135l293 -256h-182l-176 150l-180 -150h-187z" />
<glyph unicode="&#xdc;" horiz-adv-x="1341" d="M154 571v945h151v-945q0 -182 51 -274q102 -186 313.5 -186t313.5 186q51 92 51 274v945h152v-945q0 -193 -58 -315q-63 -137 -184 -210t-274.5 -73t-274.5 73t-184 210q-57 122 -57 315zM442 1642v259h152v-259h-152zM745 1642v259h152v-259h-152z" />
<glyph unicode="&#xdd;" horiz-adv-x="1212" d="M2 1516h168l432 -850l445 850h165l-532 -1010v-506h-152v506zM424 1720l407 224l66 -123l-405 -219z" />
<glyph unicode="&#xde;" horiz-adv-x="1212" d="M123 0v1516h151v-306h271q262 0 391 -88q188 -129 188 -364.5t-188 -364.5q-129 -88 -391 -88h-271v-305h-151zM274 442h263q178 0 260 39q176 84 176 276.5t-176 276.5q-82 39 -260 39h-263v-631z" />
<glyph unicode="&#xdf;" d="M125 0v985q0 260 72 369q57 86 153 137t199 51q186 0 303 -121t117 -307q0 -219 -181 -315q287 -98 287 -389q0 -188 -118.5 -312.5t-307.5 -124.5q-129 0 -231.5 65.5t-145.5 184.5h-4v-223h-143zM268 416h105q4 -125 78.5 -219.5t195.5 -94.5t203 85t82 208 q0 141 -94 221q-98 84 -310 84h-69v138q162 0 264 68.5t102 221.5q0 123 -77.5 204t-198.5 81q-154 0 -230 -135q-51 -94 -51 -293v-569z" />
<glyph unicode="&#xe0;" horiz-adv-x="1398" d="M86 563q0 250 176 418t426 168q135 0 251 -57.5t185 -167.5h4v196h144v-1120h-144v197h-4q-72 -109 -187.5 -166.5t-248.5 -57.5q-254 0 -428 169t-174 421zM229 557q0 -197 131.5 -326t327.5 -129q188 0 318.5 134.5t130.5 323t-130 324.5t-319 136q-199 0 -329 -132 t-130 -331zM455 1487l65 123l408 -224l-68 -118z" />
<glyph unicode="&#xe1;" horiz-adv-x="1398" d="M86 563q0 250 176 418t426 168q135 0 251 -57.5t185 -167.5h4v196h144v-1120h-144v197h-4q-72 -109 -187.5 -166.5t-248.5 -57.5q-254 0 -428 169t-174 421zM229 557q0 -197 131.5 -326t327.5 -129q188 0 318.5 134.5t130.5 323t-130 324.5t-319 136q-199 0 -329 -132 t-130 -331zM475 1386l408 224l65 -123l-405 -219z" />
<glyph unicode="&#xe2;" horiz-adv-x="1398" d="M86 563q0 250 176 418t426 168q135 0 251 -57.5t185 -167.5h4v196h144v-1120h-144v197h-4q-72 -109 -187.5 -166.5t-248.5 -57.5q-254 0 -428 169t-174 421zM229 557q0 -197 131.5 -326t327.5 -129q188 0 318.5 134.5t130.5 323t-130 324.5t-319 136q-199 0 -329 -132 t-130 -331zM338 1309l297 256h135l293 -256h-182l-176 149l-181 -149h-186z" />
<glyph unicode="&#xe3;" horiz-adv-x="1398" d="M86 563q0 250 176 418t426 168q135 0 251 -57.5t185 -167.5h4v196h144v-1120h-144v197h-4q-72 -109 -187.5 -166.5t-248.5 -57.5q-254 0 -428 169t-174 421zM229 557q0 -197 131.5 -326t327.5 -129q188 0 318.5 134.5t130.5 323t-130 324.5t-319 136q-199 0 -329 -132 t-130 -331zM346 1458q92 86 213 86q63 0 155.5 -42t135.5 -42q41 0 129 53l74 -100q-109 -80 -201 -80q-66 0 -160 42t-137 42q-72 0 -137 -61z" />
<glyph unicode="&#xe4;" horiz-adv-x="1398" d="M86 563q0 250 176 418t426 168q135 0 251 -57.5t185 -167.5h4v196h144v-1120h-144v197h-4q-72 -109 -187.5 -166.5t-248.5 -57.5q-254 0 -428 169t-174 421zM229 557q0 -197 131.5 -326t327.5 -129q188 0 318.5 134.5t130.5 323t-130 324.5t-319 136q-199 0 -329 -132 t-130 -331zM471 1309v258h152v-258h-152zM774 1309v258h152v-258h-152z" />
<glyph unicode="&#xe5;" horiz-adv-x="1398" d="M86 563q0 250 176 418t426 168q135 0 251 -57.5t185 -167.5h4v196h144v-1120h-144v197h-4q-72 -109 -187.5 -166.5t-248.5 -57.5q-254 0 -428 169t-174 421zM229 557q0 -197 131.5 -326t327.5 -129q188 0 318.5 134.5t130.5 323t-130 324.5t-319 136q-199 0 -329 -132 t-130 -331zM487 1440q0 86 62.5 149.5t148.5 63.5q88 0 150.5 -62.5t62.5 -150.5t-62.5 -149.5t-150.5 -61.5q-86 0 -148.5 62.5t-62.5 148.5zM594 1440q0 -43 30.5 -74t73.5 -31t75 31t32 74q0 45 -31 75.5t-76 30.5q-43 0 -73.5 -31.5t-30.5 -74.5z" />
<glyph unicode="&#xe6;" horiz-adv-x="2369" d="M70 557.5q0 108.5 47 222.5q72 172 219 270.5t334 98.5q309 0 442 -236h4v207h144v-207h4q57 109 182 172.5t254 63.5q244 0 412.5 -179t168.5 -423q0 -6 -1 -20.5t-1 -20.5h-1013q16 -170 141 -287t295 -117q129 0 242.5 72t154.5 191h144q-51 -172 -206 -282t-335 -110 q-131 0 -251 61.5t-187 168.5h-4v-203h-144v203h-4q-152 -229 -444 -230q-184 0 -332 95.5t-219 265.5q-47 115 -47 223.5zM213 553q0 -186 134 -318.5t321 -132.5q193 0 323.5 131.5t130.5 323.5q0 195 -129 329t-323 134q-190 0 -323.5 -137t-133.5 -330zM1266 635h870 q-27 166 -147.5 275.5t-286.5 109.5t-287.5 -109.5t-148.5 -275.5z" />
<glyph unicode="&#xe7;" horiz-adv-x="1325" d="M84 559q0 246 177 418t425 172q186 0 338 -98.5t219 -268.5h-158q-59 111 -164.5 174.5t-230.5 63.5q-193 0 -328 -132t-135 -325q0 -195 134.5 -328t328.5 -133q127 0 232.5 58.5t162.5 169.5h158q-180 -348 -545 -355l-45 -90q23 8 68 9q68 0 107.5 -52.5t39.5 -124.5 q0 -78 -54 -125t-134 -47q-70 0 -115 44t-55 114l86 4q6 -37 31.5 -61.5t62.5 -24.5q45 0 69.5 31t24.5 76q0 96 -98 96q-55 0 -82 -39l-74 43l80 152q-225 23 -375.5 188.5t-150.5 390.5z" />
<glyph unicode="&#xe8;" horiz-adv-x="1331" d="M78 559q0 242 171 416t410 174q244 0 416 -178t172 -422q0 -8 -1 -20.5t-1 -20.5h-1020q8 -164 138.5 -285t295.5 -121q133 0 245 72t157 193h151q-61 -176 -212.5 -285t-337.5 -109q-242 0 -413 172t-171 414zM225 637h875q-29 166 -150 274.5t-288 108.5 q-166 0 -288 -108.5t-149 -274.5zM420 1487l65 123l408 -224l-68 -118z" />
<glyph unicode="&#xe9;" horiz-adv-x="1331" d="M78 559q0 242 171 416t410 174q244 0 416 -178t172 -422q0 -8 -1 -20.5t-1 -20.5h-1020q8 -164 138.5 -285t295.5 -121q133 0 245 72t157 193h151q-61 -176 -212.5 -285t-337.5 -109q-242 0 -413 172t-171 414zM225 637h875q-29 166 -150 274.5t-288 108.5 q-166 0 -288 -108.5t-149 -274.5zM442 1386l408 224l65 -123l-405 -219z" />
<glyph unicode="&#xea;" horiz-adv-x="1331" d="M78 559q0 242 171 416t410 174q244 0 416 -178t172 -422q0 -8 -1 -20.5t-1 -20.5h-1020q8 -164 138.5 -285t295.5 -121q133 0 245 72t157 193h151q-61 -176 -212.5 -285t-337.5 -109q-242 0 -413 172t-171 414zM225 637h875q-29 166 -150 274.5t-288 108.5 q-166 0 -288 -108.5t-149 -274.5zM303 1309l297 256h135l293 -256h-182l-176 149l-181 -149h-186z" />
<glyph unicode="&#xeb;" horiz-adv-x="1331" d="M78 559q0 242 171 416t410 174q244 0 416 -178t172 -422q0 -8 -1 -20.5t-1 -20.5h-1020q8 -164 138.5 -285t295.5 -121q133 0 245 72t157 193h151q-61 -176 -212.5 -285t-337.5 -109q-242 0 -413 172t-171 414zM225 637h875q-29 166 -150 274.5t-288 108.5 q-166 0 -288 -108.5t-149 -274.5zM438 1309v258h152v-258h-152zM741 1309v258h152v-258h-152z" />
<glyph unicode="&#xec;" horiz-adv-x="409" d="M-123 1487l66 123l407 -224l-67 -118zM133 0v1120h143v-1120h-143z" />
<glyph unicode="&#xed;" horiz-adv-x="409" d="M61 1386l408 224l66 -123l-406 -219zM133 0v1120h143v-1120h-143z" />
<glyph unicode="&#xee;" horiz-adv-x="409" d="M-158 1309l297 256h135l293 -256h-182l-176 149l-180 -149h-187zM133 0v1120h143v-1120h-143z" />
<glyph unicode="&#xef;" horiz-adv-x="409" d="M-23 1309v258h152v-258h-152zM133 0v1120h143v-1120h-143zM281 1309v258h151v-258h-151z" />
<glyph unicode="&#xf0;" horiz-adv-x="1341" d="M86 565q0 238 168 408t405 170q168 0 299 -94l5 4q-98 135 -299 254l-318 -125l-102 80l297 112q-133 68 -240 101l160 67q102 -31 244 -104l272 104l98 -76l-256 -100q438 -315 438 -780q0 -256 -166.5 -433.5t-420.5 -177.5q-246 0 -415 172t-169 418zM229 557 q0 -186 126 -319.5t313 -133.5q193 0 319.5 136.5t126.5 330.5q0 190 -130 316.5t-320 126.5q-88 0 -177 -39q-127 -55 -192.5 -165t-65.5 -253z" />
<glyph unicode="&#xf1;" horiz-adv-x="1249" d="M133 0v1120h143v-143h5q53 84 146 128t198 44q236 0 364.5 -146.5t128.5 -386.5v-616h-143v616q0 207 -107 308q-102 96 -243.5 96t-243.5 -96q-104 -98 -105 -297v-627h-143zM272 1458q92 86 213 86q63 0 155.5 -42t135.5 -42q41 0 129 53l74 -100q-109 -80 -201 -80 q-66 0 -160 42t-137 42q-72 0 -137 -61z" />
<glyph unicode="&#xf2;" horiz-adv-x="1341" d="M86 553q0 244 170 420t414 176q240 0 413.5 -174t173.5 -414q0 -242 -173 -415t-414 -173q-238 0 -411 172t-173 408zM229 555q0 -184 129 -318.5t314 -134.5q190 0 316 136.5t126 328.5q0 184 -130 318.5t-312 134.5q-186 0 -314.5 -138.5t-128.5 -326.5zM426 1487 l66 123l407 -224l-68 -118z" />
<glyph unicode="&#xf3;" horiz-adv-x="1341" d="M86 553q0 244 170 420t414 176q240 0 413.5 -174t173.5 -414q0 -242 -173 -415t-414 -173q-238 0 -411 172t-173 408zM229 555q0 -184 129 -318.5t314 -134.5q190 0 316 136.5t126 328.5q0 184 -130 318.5t-312 134.5q-186 0 -314.5 -138.5t-128.5 -326.5zM508 1386 l407 224l66 -123l-406 -219z" />
<glyph unicode="&#xf4;" horiz-adv-x="1341" d="M86 553q0 244 170 420t414 176q240 0 413.5 -174t173.5 -414q0 -242 -173 -415t-414 -173q-238 0 -411 172t-173 408zM229 555q0 -184 129 -318.5t314 -134.5q190 0 316 136.5t126 328.5q0 184 -130 318.5t-312 134.5q-186 0 -314.5 -138.5t-128.5 -326.5zM309 1309 l297 256h135l293 -256h-182l-176 149l-180 -149h-187z" />
<glyph unicode="&#xf5;" horiz-adv-x="1341" d="M86 553q0 244 170 420t414 176q240 0 413.5 -174t173.5 -414q0 -242 -173 -415t-414 -173q-238 0 -411 172t-173 408zM229 555q0 -184 129 -318.5t314 -134.5q190 0 316 136.5t126 328.5q0 184 -130 318.5t-312 134.5q-186 0 -314.5 -138.5t-128.5 -326.5zM317 1458 q92 86 213 86q63 0 155.5 -42t135.5 -42q41 0 129 53l74 -100q-109 -80 -201 -80q-66 0 -160 42t-137 42q-72 0 -137 -61z" />
<glyph unicode="&#xf6;" horiz-adv-x="1341" d="M86 553q0 244 170 420t414 176q240 0 413.5 -174t173.5 -414q0 -242 -173 -415t-414 -173q-238 0 -411 172t-173 408zM229 555q0 -184 129 -318.5t314 -134.5q190 0 316 136.5t126 328.5q0 184 -130 318.5t-312 134.5q-186 0 -314.5 -138.5t-128.5 -326.5zM442 1309v258 h152v-258h-152zM745 1309v258h152v-258h-152z" />
<glyph unicode="&#xf7;" horiz-adv-x="1241" d="M104 449v139h1033v-139h-1033zM545 -27v258h151v-258h-151zM545 805v258h151v-258h-151z" />
<glyph unicode="&#xf8;" horiz-adv-x="1337" d="M84 553q0 244 170 420t414 176q162 0 295 -84l147 192l113 -83l-148 -193q180 -176 180 -420q0 -242 -173 -415t-414 -173q-164 0 -297 86l-146 -190l-110 78l147 194q-178 174 -178 412zM227 555q0 -178 119 -303l537 706q-100 61 -213 62q-186 0 -314.5 -138.5 t-128.5 -326.5zM453 166q98 -63 217 -64q190 0 316 136.5t126 328.5q0 184 -119 305z" />
<glyph unicode="&#xf9;" horiz-adv-x="1245" d="M127 502v618h143v-616q0 -401 340 -402q141 0 238 91q68 66 92.5 145.5t24.5 189.5v592h143v-1120h-135v174h-4q-47 -98 -144.5 -149.5t-214.5 -51.5q-252 0 -385 168q-98 123 -98 361zM336 1487l65 123l408 -224l-68 -118z" />
<glyph unicode="&#xfa;" horiz-adv-x="1245" d="M127 502v618h143v-616q0 -401 340 -402q141 0 238 91q68 66 92.5 145.5t24.5 189.5v592h143v-1120h-135v174h-4q-47 -98 -144.5 -149.5t-214.5 -51.5q-252 0 -385 168q-98 123 -98 361zM440 1386l408 224l65 -123l-405 -219z" />
<glyph unicode="&#xfb;" horiz-adv-x="1245" d="M127 502v618h143v-616q0 -401 340 -402q141 0 238 91q68 66 92.5 145.5t24.5 189.5v592h143v-1120h-135v174h-4q-47 -98 -144.5 -149.5t-214.5 -51.5q-252 0 -385 168q-98 123 -98 361zM260 1309l297 256h135l293 -256h-182l-176 149l-181 -149h-186z" />
<glyph unicode="&#xfc;" horiz-adv-x="1245" d="M127 502v618h143v-616q0 -401 340 -402q141 0 238 91q68 66 92.5 145.5t24.5 189.5v592h143v-1120h-135v174h-4q-47 -98 -144.5 -149.5t-214.5 -51.5q-252 0 -385 168q-98 123 -98 361zM395 1309v258h152v-258h-152zM698 1309v258h152v-258h-152z" />
<glyph unicode="&#xfd;" horiz-adv-x="1097" d="M31 1120h151l357 -893l381 893h151l-649 -1513h-150l195 430zM367 1386l407 224l66 -123l-406 -219z" />
<glyph unicode="&#xfe;" horiz-adv-x="1396" d="M131 -393v1909h143v-592h5q74 109 188.5 167t247.5 58q250 0 426 -168t176 -418q0 -252 -174 -421t-428 -169q-131 0 -247 58.5t-189 165.5h-5v-590h-143zM266 559.5q0 -188.5 130 -323t319 -134.5q197 0 328 129t131 326q0 199 -130.5 331t-328.5 132 q-188 0 -318.5 -136t-130.5 -324.5z" />
<glyph unicode="&#xff;" horiz-adv-x="1097" d="M31 1120h151l357 -893l381 893h151l-649 -1513h-150l195 430zM322 1309v258h151v-258h-151zM625 1309v258h151v-258h-151z" />
<glyph unicode="&#x152;" horiz-adv-x="2445" d="M92 760q0 328 231.5 555t561.5 227q190 0 377.5 -87t271.5 -241h4v302h801v-138h-649v-547h626v-137h-626v-557h649v-137h-801v309h-4q-84 -156 -264 -246t-367 -90q-342 0 -576.5 223.5t-234.5 563.5zM244 766q0 -272 184 -463.5t455 -191.5q272 0 464.5 188t192.5 461 q0 268 -189.5 456.5t-457.5 188.5q-270 0 -459.5 -185.5t-189.5 -453.5z" />
<glyph unicode="&#x153;" horiz-adv-x="2328" d="M70 553q0 244 170 420t413 176q160 0 299.5 -85t214.5 -226q76 143 213.5 227t298.5 84q242 0 413 -178t171 -422q0 -8 -1 -20.5t-1 -20.5h-1018q8 -166 138 -286t298 -120q129 0 243 73t155 192h151q-57 -172 -210.5 -283t-336.5 -111q-162 0 -301 83t-217 227 q-76 -141 -213 -225.5t-297 -84.5q-238 0 -410.5 172t-172.5 408zM213 555q0 -184 129 -318.5t313.5 -134.5t314.5 134.5t130 318.5q0 188 -128 326.5t-317 138.5q-186 0 -314 -138.5t-128 -326.5zM1247 637h871q-27 166 -147 274.5t-288 108.5q-166 0 -287.5 -109.5 t-148.5 -273.5z" />
<glyph unicode="&#x178;" horiz-adv-x="1212" d="M2 1516h168l432 -850l445 850h165l-532 -1010v-506h-152v506zM379 1642v259h151v-259h-151zM682 1642v259h152v-259h-152z" />
<glyph unicode="&#x2c6;" horiz-adv-x="1028" d="M152 1247l297 256h135l293 -256h-183l-176 150l-180 -150h-186z" />
<glyph unicode="&#x2dc;" horiz-adv-x="899" d="M96 1397q92 86 213 86q63 0 155.5 -42t135.5 -42q41 0 129 53l74 -100q-109 -80 -201 -80q-66 0 -160 42t-137 42q-72 0 -137 -62z" />
<glyph unicode="&#x2013;" horiz-adv-x="1024" d="M72 508v137h880v-137h-880z" />
<glyph unicode="&#x2014;" horiz-adv-x="2048" d="M72 508v137h1904v-137h-1904z" />
<glyph unicode="&#x2018;" horiz-adv-x="718" d="M195 1516h151l180 -398h-151z" />
<glyph unicode="&#x2019;" horiz-adv-x="718" d="M193 1118l180 398h151l-180 -398h-151z" />
<glyph unicode="&#x201a;" horiz-adv-x="724" d="M182 -139l180 397h152l-180 -397h-152z" />
<glyph unicode="&#x201c;" horiz-adv-x="1028" d="M199 1516h151l180 -398h-151zM502 1516h149l180 -398h-151z" />
<glyph unicode="&#x201d;" horiz-adv-x="991" d="M197 1118l180 398h149l-178 -398h-151zM498 1118l180 398h151l-180 -398h-151z" />
<glyph unicode="&#x201e;" horiz-adv-x="1028" d="M182 -139l180 397h152l-180 -397h-152zM485 -139l181 397h151l-180 -397h-152z" />
<glyph unicode="&#x2022;" horiz-adv-x="1241" d="M307 772q0 131 92.5 224.5t223.5 93.5q129 0 219 -94.5t90 -223.5t-91 -223t-220 -94t-221.5 94t-92.5 223z" />
<glyph unicode="&#x2026;" horiz-adv-x="2048" d="M266 0v258h152v-258h-152zM948 0v258h152v-258h-152zM1630 0v258h152v-258h-152z" />
<glyph unicode="&#x2039;" horiz-adv-x="514" d="M82 578l231 407l121 -63l-192 -344l192 -345l-121 -67z" />
<glyph unicode="&#x203a;" horiz-adv-x="514" d="M80 233l192 345l-192 344l119 63l233 -407l-233 -412z" />
<glyph unicode="&#x20ac;" d="M16 557l52 129h125v74v69h-177l52 129h133q25 262 127 406q125 178 358 178q195 0 303 -112q100 -100 117 -263h-143q-16 109 -78 166q-78 72 -201 72q-164 0 -250 -135q-68 -106 -84 -312h639l-51 -129h-594v-69v-74h537l-52 -129h-479q14 -225 94 -334 q78 -113 242 -112q135 0 211 75q53 53 74 160h143q-25 -174 -123 -268q-106 -104 -309 -105q-225 0 -344 148q-121 147 -139 436h-183z" />
<glyph unicode="&#x2122;" horiz-adv-x="1826" d="M18 1419v97h543v-97h-215v-813h-113v813h-215zM678 606v910h160l336 -748l335 748h162v-910h-112v762h-5l-333 -762h-95l-331 760h-4v-760h-113z" />
<glyph unicode="&#xe000;" horiz-adv-x="1120" d="M0 1120h1120v-1120h-1120v1120z" />
<glyph unicode="&#xfb01;" horiz-adv-x="997" d="M39 991v129h174q4 113 18 168q68 250 412 254v-133q-154 0 -220.5 -65.5t-66.5 -215.5v-8h508v-1120h-143v991h-365v-991h-143v991h-174zM721 1257v259h143v-259h-143z" />
<glyph unicode="&#xfb02;" horiz-adv-x="993" d="M39 991v129h174q4 113 18 168q68 250 412 254v-133q-154 0 -220.5 -65.5t-66.5 -215.5v-8h361v396h143v-1516h-143v991h-361v-991h-143v991h-174z" />
<glyph unicode="&#xfb03;" horiz-adv-x="1519" d="M39 991v129h174q2 63 6 104.5t28.5 108t66.5 106.5t126 70.5t203 32.5v-133q-80 0 -137 -20.5t-86 -46t-44.5 -70.5t-17.5 -73t-2 -71v-8h365q2 63 6 104.5t28.5 108t66.5 106.5t126 70.5t203 32.5v-133q-80 0 -137.5 -20.5t-86 -46t-44 -70.5t-17.5 -73t-2 -71v-8h508 v-1120h-143v991h-365v-991h-143v991h-365v-991h-143v991h-174zM1229 1257v259h143v-259h-143z" />
<glyph unicode="&#xfb04;" horiz-adv-x="1366" d="M31 981v131h135v78q0 143 94 237.5t285 100.5v-133q-236 -4 -236 -201v-82h312v78q0 143 94 237.5t284 100.5v-133q-236 -4 -235 -201v-82h311v404h144v-1516h-144v981h-311v-981h-143v981h-312v-981h-143v981h-135z" />
</font>
</defs>
</svg>
